# """"""""""""""""""""""Procon - An Iconic Font based on Stlarch font, Sm4tik's xbm pack, FontAwesome and Lokaltog Symbol Font""""""""""""""""""""""
# ""Siji font - an iconic bitmap font based on Stlarch by Stark""

name: Siji Medium 10
family: Siji
foundry: Wuncon
copyright: GPLv2
point-size: 10
weight: medium
dpi: 75 75
spacing: character-cell
x-height: 3
ascent: 8
offset: 0 -2
encoding: unicode
default-char: u+0000
converter: monobit v0.12
source-name: siji.bdf
source-format: BDF v2.1
bdf.FONTNAME-REGISTRY: ""
bdf.WEIGHT: 10
bdf.-GBDFED-INFO: "Edited with gbdfed 1.6."
bdf.QUAD-WIDTH: 8

u+e000:
U+E000:
    ............
    ............
    ..@@@@@@@@..
    ..@@@@@@@@..
    ..@@@@@@@@..
    ..@@@@@@@@..
    ..@@@@@@@@..
    ..@@@@@@@@..
    ..@@@@@@@@..
    ..@@@@@@@@..
    ............
    ............

u+e001:
U+E001:
    ............
    ............
    ..@@@@@@@@..
    ..@@@@@@@@..
    ..@@....@@..
    ..@@....@@..
    ..@@....@@..
    ..@@....@@..
    ..@@@@@@@@..
    ..@@@@@@@@..
    ............
    ............

u+e002:
U+E002:
    ............
    ............
    ..@@@@.@@@..
    ..@@@@.@@@..
    ..@@@@......
    ..@@@@.@@@..
    ..@@@@.@@@..
    ..@@@@......
    ..@@@@.@@@..
    ..@@@@.@@@..
    ............
    ............

u+e003:
U+E003:
    ............
    ............
    ..@@@@@@@@..
    ..@@@@@@@@..
    ..@@@@@@@@..
    ..@@@@@@@@..
    ............
    ..@@.@@.@@..
    ..@@.@@.@@..
    ..@@.@@.@@..
    ............
    ............

u+e004:
U+E004:
    ............
    ............
    ..@@@@@@@@..
    ..@@@@@@@@..
    ..@@@@@@@@..
    ..@@@@@@@@..
    ............
    ..@@@@@@@@..
    ............
    ..@@@@@@@@..
    ............
    ............

u+e005:
U+E005:
    ............
    ............
    ..@@.@@.@@..
    ..@@.@@.@@..
    ............
    ..@@.@@.@@..
    ..@@.@@.@@..
    ............
    ..@@.@@.@@..
    ..@@.@@.@@..
    ............
    ............

u+e006:
U+E006:
    ............
    ............
    ..@@@@.@@@..
    ..@@@@.@@@..
    ..@@@@.@@@..
    ..@@@@.@@@..
    .......@@@..
    ..@@@@@@@@..
    ..@@@@@@@@..
    ..@@@@@@@@..
    ............
    ............

u+e007:
U+E007:
    ............
    ............
    ..@@@@.@@@..
    ..@@@@.@@@..
    ..@@@@.@@@..
    ..@@@@.@@@..
    ..@@@@......
    ..@@@@.@.@..
    ..@@@@.@....
    ..@@@@.@.@..
    ............
    ............

u+e008:
U+E008:
    ............
    ............
    ..@@@@.@@@..
    ..@@@@.@@@..
    ..@@@@.@@@..
    ..@@@@.@@@..
    ..@@@@......
    ..@@@@.@.@..
    ..@@@@...@..
    ..@@@@.@.@..
    ............
    ............

u+e009:
U+E009:
    ............
    ............
    ..@@@@.@@@..
    ..@@@@.@@@..
    ..@@@@......
    ..@@@@.@@@..
    .......@@@..
    ..@@@@......
    ..@@@@.@@@..
    ..@@@@.@@@..
    ............
    ............

u+e00a:
U+E00A:
    ............
    ............
    ..@@@@.@@@..
    ..@@@@.@@@..
    ..@@@@.@@@..
    ..@@@@.@@@..
    ............
    ..@@.@@.@@..
    ..@@.@@.@@..
    ..@@.@@.@@..
    ............
    ............

u+e00b:
U+E00B:
    ............
    ............
    .....@@.....
    .....@.@....
    ..@..@..@...
    ...@.@.@....
    ....@@@.....
    ...@.@.@....
    ..@..@..@...
    .....@.@....
    .....@@.....
    ............

u+e00c:
U+E00C:
    ............
    ............
    ......@.....
    ......@.@...
    ....@.@.@...
    ....@.@.@...
    ....@.@@....
    .....@@.....
    ......@.....
    ......@.....
    ............
    ............

u+e00d:
U+E00D:
    ............
    ............
    .....@@.....
    .....@@.....
    ...@.@@.@...
    ..@..@@..@..
    ..@..@@..@..
    ..@......@..
    ...@....@...
    ....@@@@....
    ............
    ............

u+e00e:
U+E00E:
    ............
    ............
    .....@@.....
    .....@@.....
    ....@@@@....
    ....@@@@....
    ...@@@@@@...
    ...@@..@@...
    ..@@@..@@@..
    ..@@....@@..
    ..@......@..
    ............

u+e00f:
U+E00F:
    ............
    ............
    ....@@@@....
    ...@@.@@@...
    ..@@@@@@....
    ..@@@@@.....
    ..@@@@......
    ..@@@@@@@@..
    ...@@@@@@...
    ....@@@@....
    ............
    ............

u+e010:
U+E010:
    ............
    ............
    ..@@@@@@@@..
    ..@@@@@@@@..
    ..@@@@@@@@..
    ..@@@..@@@..
    ..@@@..@@@..
    ..@@@@@@@@..
    ..@@@@@@@@..
    ..@@@@@@@@..
    ............
    ............

u+e011:
U+E011:
    ............
    ............
    ..@@@@@@@@..
    ..@@@@@..@..
    ..@@@@@..@..
    ..@@@@@@@@..
    ..@@@@@@@@..
    ..@..@@@@@..
    ..@..@@@@@..
    ..@@@@@@@@..
    ............
    ............

u+e012:
U+E012:
    ............
    ............
    ..@@@@@@@@..
    ..@@@@@..@..
    ..@@@@@..@..
    ..@@@..@@@..
    ..@@@..@@@..
    ..@..@@@@@..
    ..@..@@@@@..
    ..@@@@@@@@..
    ............
    ............

u+e013:
U+E013:
    ............
    ............
    ..@@@@@@@@..
    ..@..@@..@..
    ..@..@@..@..
    ..@@@@@@@@..
    ..@@@@@@@@..
    ..@..@@..@..
    ..@..@@..@..
    ..@@@@@@@@..
    ............
    ............

u+e014:
U+E014:
    ............
    ............
    ..@@@@@@@@..
    ..@..@@..@..
    ..@..@@..@..
    ..@@@..@@@..
    ..@@@..@@@..
    ..@..@@..@..
    ..@..@@..@..
    ..@@@@@@@@..
    ............
    ............

u+e015:
U+E015:
    ............
    ............
    ....@@@@....
    ...@@.@@@...
    ..@@@.@@@@..
    ..@@@.@@@@..
    ..@@@....@..
    ..@@@@@@@@..
    ...@@@@@@...
    ....@@@@....
    ............
    ............

u+e016:
U+E016:
    ............
    ............
    ....@@@@....
    ...@....@...
    ..@..@...@..
    ..@..@...@..
    ..@..@@@.@..
    ..@......@..
    ...@....@...
    ....@@@@....
    ............
    ............

u+e017:
U+E017:
    ............
    ............
    ..@@@@@@@@..
    ..@@@.@@@@..
    ..@@@.@@@@..
    ..@@@.@@@@..
    ..@@@....@..
    ..@@@@@@@@..
    ..@@@@@@@@..
    ..@@@@@@@@..
    ............
    ............

u+e018:
U+E018:
    ............
    ............
    ..@@@@@@@@..
    ..@......@..
    ..@..@...@..
    ..@..@...@..
    ..@..@@@.@..
    ..@......@..
    ..@......@..
    ..@@@@@@@@..
    ............
    ............

u+e019:
U+E019:
    ............
    ............
    .....@@.....
    ....@.@@....
    ...@@.@@@...
    ..@@@.@@@@..
    ..@@@....@..
    ...@@@@@@...
    ....@@@@....
    .....@@.....
    ............
    ............

u+e01a:
U+E01A:
    ............
    ............
    .....@@.....
    ....@..@....
    ...@.@..@...
    ..@..@...@..
    ..@..@@@.@..
    ...@....@...
    ....@..@....
    .....@@.....
    ............
    ............

u+e01b:
U+E01B:
    ............
    ............
    .....@..@@..
    .......@@@..
    ...@..@@@...
    .....@.@....
    ...@@.@.....
    ..@..@......
    ..@..@......
    ...@@.......
    ............
    ............

u+e01c:
U+E01C:
    ............
    ............
    ......@..@..
    .....@@@....
    .....@@@.@..
    .....@@@....
    .....@.@.@..
    ....@...@...
    ....@...@...
    .....@@@....
    ............
    ............

u+e01d:
U+E01D:
    ............
    ............
    .....@@.....
    .....@@@@...
    .....@@.....
    .....@@@@...
    .....@@.....
    ....@@@@....
    ....@@@@....
    .....@@.....
    ............
    ............

u+e01e:
U+E01E:
    ............
    ............
    ....@@@@@...
    ...@@@@@@@..
    ...@.....@..
    ...@..@..@..
    ...@...@.@..
    ...@..@..@..
    ...@.....@..
    ....@@@@@...
    ............
    ............

u+e01f:
U+E01F:
    ............
    ............
    ....@@@@@...
    ...@@@@@@@..
    ...@.....@..
    ...@.@@@.@..
    ...@.....@..
    ...@.@@@.@..
    ...@.....@..
    ....@@@@@...
    ............
    ............

u+e020:
U+E020:
    ............
    ............
    ...@.@.@.@..
    ............
    ...@@@@@@@..
    ...@@@@@@@..
    ...@@@@@@@..
    ...@@@@@@@..
    ............
    ...@.@.@.@..
    ............
    ............

u+e021:
U+E021:
    ............
    ............
    ..@@.@@.@@..
    ............
    ..@@@@@@@@..
    ..@@@@@@@@..
    ..@@@@@@@@..
    ..@@@@@@@@..
    ............
    ..@@.@@.@@..
    ............
    ............

u+e022:
U+E022:
    ............
    ............
    ..@@....@@..
    ..@.@@@@.@..
    ...@@@@@@...
    ...@@@@@@...
    ...@@@@@@...
    ...@@@@@@...
    ..@.@@@@.@..
    ..@@....@@..
    ............
    ............

u+e023:
U+E023:
    ............
    ............
    ............
    ...@@...@@..
    ...@.@@@.@..
    ....@@@@@...
    ....@@@@@...
    ....@@@@@...
    ...@.@@@.@..
    ...@@...@@..
    ............
    ............

u+e024:
U+E024:
    ............
    ............
    ..@......@..
    ...@@@@@@...
    ...@@@@@@...
    ...@@@@@@...
    ...@@@@@@...
    ...@@@@@@...
    ...@@@@@@...
    ..@......@..
    ............
    ............

u+e025:
U+E025:
    ............
    ............
    ............
    ...@.....@..
    ....@@@@@...
    ....@@@@@...
    ....@@@@@...
    ....@@@@@...
    ....@@@@@...
    ...@.....@..
    ............
    ............

u+e026:
U+E026:
    ............
    ............
    ..@@.@@.@@..
    ..@@....@@..
    ....@@@@....
    ..@.@@@@.@..
    ..@.@@@@.@..
    ....@@@@....
    ..@@....@@..
    ..@@.@@.@@..
    ............
    ............

u+e027:
U+E027:
    ............
    ............
    ...@........
    ...@.@@@@@..
    ...@@@@@....
    ...@@..@@...
    ...@@..@@...
    ....@@@@@...
    ..@@@@@.@...
    ........@...
    ............
    ............

u+e028:
U+E028:
    ............
    ............
    ............
    ..@.@.@.@...
    ............
    ..@@@@@@@...
    ..@@@@@@@...
    ..@@@@@@@...
    ............
    ..@.@.@.@...
    ............
    ............

u+e029:
U+E029:
    ............
    ............
    ...@@@@@....
    ..@.....@...
    ..@.....@...
    ..@.....@...
    ..@@@@@@@...
    ..@@@@@@@...
    ..@@@@@@@...
    ..@@@@@@@...
    ............
    ............

u+e02a:
U+E02A:
    ............
    ............
    ............
    ..@@@@@@@...
    ..@.@@@.@...
    ..@.....@...
    ..@@@@@@@...
    ..@.@@@.@...
    ..@.....@...
    ..@@@@@@@...
    ............
    ............

u+e02b:
U+E02B:
    ............
    ............
    ..@@@@@@@@..
    ..@.@@@@.@..
    ..@......@..
    ..@@@@@@@@..
    ..@.@@@@.@..
    ..@......@..
    ..@......@..
    ..@@@@@@@@..
    ............
    ............

u+e02c:
U+E02C:
    ............
    ............
    ...@@@@@....
    ..@@...@@...
    ..@.@@@.@...
    ..@.@@@.@...
    ..@.@@@.@...
    ..@@...@@...
    ...@@@@@....
    ..@.....@...
    ............
    ............

u+e02d:
U+E02D:
    ............
    ............
    ..@@@@@.....
    ..@....@....
    ..@@@@..@...
    ..@...@..@..
    ..@@@..@.@..
    ..@..@.@.@..
    ..@@.@.@.@..
    ..@@@@@@@@..
    ............
    ............

u+e02e:
U+E02E:
    ............
    ............
    .....@@@....
    .....@@@....
    ............
    ....@@@@....
    .....@@@....
    .....@@@....
    .....@@@....
    ....@@@@@...
    ............
    ............

u+e02f:
U+E02F:
    ............
    ............
    ....@@@@....
    ....@@@@....
    ............
    ...@@@@@....
    ....@@@@....
    ....@@@@....
    ....@@@@....
    ...@@@@@@...
    ............
    ............

u+e030:
U+E030:
    ............
    ............
    .....@@.....
    ...@@@@@@...
    ...@....@...
    ...@....@...
    ...@....@...
    ...@....@...
    ...@....@...
    ...@@@@@@...
    ............
    ............

u+e031:
U+E031:
    ............
    ............
    .....@@.....
    ...@@@@@@...
    ...@....@...
    ...@....@...
    ...@.@..@...
    ...@.@@.@...
    ...@....@...
    ...@@@@@@...
    ............
    ............

u+e032:
U+E032:
    ............
    ............
    .....@@.....
    ...@@@@@@...
    ...@....@...
    ...@.@..@...
    ...@.@@.@...
    ...@.@@.@...
    ...@....@...
    ...@@@@@@...
    ............
    ............

u+e033:
U+E033:
    ............
    ............
    .....@@.....
    ...@@@@@@...
    ...@....@...
    ...@.@@.@...
    ...@.@@.@...
    ...@.@@.@...
    ...@....@...
    ...@@@@@@...
    ............
    ............

u+e034:
U+E034:
    ............
    ............
    ....@@@.....
    ..@@@@@@@...
    ..@.....@...
    ..@.....@...
    ..@.....@...
    ..@.....@...
    ..@.....@...
    ..@@@@@@@...
    ............
    ............

u+e035:
U+E035:
    ............
    ............
    ....@@@.....
    ..@@@@@@@...
    ..@.....@...
    ..@.....@...
    ..@.@...@...
    ..@.@@..@...
    ..@.....@...
    ..@@@@@@@...
    ............
    ............

u+e036:
U+E036:
    ............
    ............
    ....@@@.....
    ..@@@@@@@...
    ..@.....@...
    ..@.@...@...
    ..@.@@..@...
    ..@.@@@.@...
    ..@.....@...
    ..@@@@@@@...
    ............
    ............

u+e037:
U+E037:
    ............
    ............
    ....@@@.....
    ..@@@@@@@...
    ..@.....@...
    ..@.@@@.@...
    ..@.@@@.@...
    ..@.@@@.@...
    ..@.....@...
    ..@@@@@@@...
    ............
    ............

u+e038:
U+E038:
    ............
    ............
    ............
    ..@@@@@@@...
    ..@.....@...
    ..@.....@@..
    ..@.....@@..
    ..@.....@...
    ..@@@@@@@...
    ............
    ............
    ............

u+e039:
U+E039:
    ............
    ............
    ............
    ..@@@@@@@...
    ..@.....@...
    ..@.@...@@..
    ..@.@@..@@..
    ..@.....@...
    ..@@@@@@@...
    ............
    ............
    ............

u+e03a:
U+E03A:
    ............
    ............
    ............
    ..@@@@@@@...
    ..@.....@...
    ..@.@@..@@..
    ..@.@@@.@@..
    ..@.....@...
    ..@@@@@@@...
    ............
    ............
    ............

u+e03b:
U+E03B:
    ............
    ............
    ............
    ..@@@@@@@...
    ..@.....@...
    ..@.@@@.@@..
    ..@.@@@.@@..
    ..@.....@...
    ..@@@@@@@...
    ............
    ............
    ............

u+e03c:
U+E03C:
    ............
    ............
    ............
    ..@@@@@@@...
    ..@.....@...
    ..@.....@@..
    ..@.....@@..
    ..@.....@@..
    ..@.....@...
    ..@@@@@@@...
    ............
    ............

u+e03d:
U+E03D:
    ............
    ............
    ............
    ..@@@@@@@...
    ..@.....@...
    ..@.....@@..
    ..@.@...@@..
    ..@.@@..@@..
    ..@.....@...
    ..@@@@@@@...
    ............
    ............

u+e03e:
U+E03E:
    ............
    ............
    ............
    ..@@@@@@@...
    ..@.....@...
    ..@.@...@@..
    ..@.@@..@@..
    ..@.@@@.@@..
    ..@.....@...
    ..@@@@@@@...
    ............
    ............

u+e03f:
U+E03F:
    ............
    ............
    ............
    ..@@@@@@@...
    ..@.....@...
    ..@.@@@.@@..
    ..@.@@@.@@..
    ..@.@@@.@@..
    ..@.....@...
    ..@@@@@@@...
    ............
    ............

u+e040:
U+E040:
    ............
    ............
    .......@....
    ......@.....
    .....@@.....
    ....@@......
    ....@@@@@...
    ...@@@@@....
    ......@@....
    .....@@.....
    .....@......
    ....@.......

u+e041:
U+E041:
    ............
    ............
    ....@..@....
    ....@..@....
    ...@@@@@@...
    ...@@@@@@...
    ...@@@@@@...
    ....@@@@....
    .....@@.....
    .....@@.....
    ............
    ............

u+e042:
U+E042:
    ............
    ............
    ............
    .....@@@....
    ....@@@@@@..
    ..@@@@@@....
    ..@@@@@@....
    ....@@@@@@..
    .....@@@....
    ............
    ............
    ............

u+e043:
U+E043:
    ............
    ............
    ....@@@.....
    ...@..@.....
    ..@...@@@@..
    ..@...@.....
    ..@...@.....
    ..@...@@@@..
    ...@..@.....
    ....@@@.....
    ............
    ............

u+e044:
U+E044:
    ............
    ............
    ............
    ............
    .......@....
    ....@@.@....
    ....@@.@....
    .......@....
    ............
    ............
    ............
    ............

u+e045:
U+E045:
    ............
    ............
    ............
    ........@...
    ......@.@...
    ...@@.@.@...
    ...@@.@.@...
    ......@.@...
    ........@...
    ............
    ............
    ............

u+e046:
U+E046:
    ............
    ............
    .........@..
    .......@.@..
    .....@.@.@..
    ..@@.@.@.@..
    ..@@.@.@.@..
    .....@.@.@..
    .......@.@..
    .........@..
    ............
    ............

u+e047:
U+E047:
    ............
    ............
    ............
    ............
    ........@@..
    ........@@..
    .....@@.@@..
    .....@@.@@..
    .....@@.@@..
    .....@@.@@..
    ............
    ............

u+e048:
U+E048:
    ............
    ............
    ........@@..
    ........@@..
    .....@@.@@..
    .....@@.@@..
    ..@@.@@.@@..
    ..@@.@@.@@..
    ..@@.@@.@@..
    ..@@.@@.@@..
    ............
    ............

u+e049:
U+E049:
    ............
    ............
    ............
    ............
    ............
    ............
    ....@@@@....
    ............
    .....@@.....
    .....@@.....
    ............
    ............

u+e04a:
U+E04A:
    ............
    ............
    ............
    ............
    ...@@@@@@...
    ............
    ....@@@@....
    ............
    .....@@.....
    .....@@.....
    ............
    ............

u+e04b:
U+E04B:
    ............
    ............
    ..@@@@@@@@..
    ............
    ...@@@@@@...
    ............
    ....@@@@....
    ............
    .....@@.....
    .....@@.....
    ............
    ............

u+e04c:
U+E04C:
    ............
    ............
    .....@@.....
    .....@@.....
    ...@.@@.@...
    ...@.@@.@...
    ...@....@...
    ....@@@@....
    .....@@.....
    ...@@@@@@...
    ............
    ............

u+e04d:
U+E04D:
    ............
    ............
    ....@@@@....
    ...@....@...
    ..@......@..
    ..@......@..
    ..@......@..
    ..@@@..@@@..
    ..@@@..@@@..
    ...@@..@@...
    ............
    ............

u+e04e:
U+E04E:
    ............
    ............
    .......@....
    ......@@....
    ...@@@@@....
    ...@@@@@....
    ...@@@@@....
    ...@@@@@....
    ......@@....
    .......@....
    ............
    ............

u+e04f:
U+E04F:
    ............
    ............
    .......@....
    ......@@....
    ...@@@@@.@..
    ...@@@@.@...
    ...@@@.@....
    ...@@.@.....
    .....@.@....
    ....@..@....
    ............
    ............

u+e050:
U+E050:
    ............
    ............
    .......@....
    ......@@....
    ...@@@@@.@..
    ...@@@@@.@..
    ...@@@@@.@..
    ...@@@@@.@..
    ......@@....
    .......@....
    ............
    ............

u+e051:
U+E051:
    ............
    ............
    ............
    .......@....
    ......@@....
    ...@@@@@....
    ...@@@@@....
    ...@@@@@....
    ......@@....
    .......@....
    ............
    ............

u+e052:
U+E052:
    ............
    ............
    ............
    .......@....
    ......@@....
    ...@@@@@.@..
    ...@@@@.@...
    ...@@@.@....
    ......@.....
    .....@.@....
    ............
    ............

u+e053:
U+E053:
    ............
    ............
    ............
    .......@....
    ......@@....
    ...@@@@@.@..
    ...@@@@@.@..
    ...@@@@@.@..
    ......@@....
    .......@....
    ............
    ............

u+e054:
U+E054:
    ............
    ............
    ...@....@...
    ...@...@@...
    ...@..@@@...
    ...@.@@@@...
    ...@.@@@@...
    ...@..@@@...
    ...@...@@...
    ...@....@...
    ............
    ............

u+e055:
U+E055:
    ............
    ............
    .....@...@..
    ....@@..@@..
    ...@@@.@@@..
    ..@@@@@@@@..
    ..@@@@@@@@..
    ...@@@.@@@..
    ....@@..@@..
    .....@...@..
    ............
    ............

u+e056:
U+E056:
    ............
    ............
    ....@@@@....
    ...@@@@@@...
    ..@@@@@@@@..
    ..@@@@@@@@..
    ..@@@@@@@@..
    ..@@@@@@@@..
    ...@@@@@@...
    ....@@@@....
    ............
    ............

u+e057:
U+E057:
    ............
    ............
    ..@@@@@@@@..
    ..@@@@@@@@..
    ..@@@@@@@@..
    ..@@@@@@@@..
    ..@@@@@@@@..
    ..@@@@@@@@..
    ..@@@@@@@@..
    ..@@@@@@@@..
    ............
    ............

u+e058:
U+E058:
    ............
    ............
    ....@.......
    ....@@......
    ....@@@.....
    ....@@@@....
    ....@@@@....
    ....@@@.....
    ....@@......
    ....@.......
    ............
    ............

u+e059:
U+E059:
    ............
    ............
    ...@@.@@....
    ...@@.@@....
    ...@@.@@....
    ...@@.@@....
    ...@@.@@....
    ...@@.@@....
    ...@@.@@....
    ...@@.@@....
    ............
    ............

u+e05a:
U+E05A:
    ............
    ............
    ...@....@...
    ...@@...@...
    ...@@@..@...
    ...@@@@.@...
    ...@@@@.@...
    ...@@@..@...
    ...@@...@...
    ...@....@...
    ............
    ............

u+e05b:
U+E05B:
    ............
    ............
    ..@...@.....
    ..@@..@@....
    ..@@@.@@@...
    ..@@@@@@@@..
    ..@@@@@@@@..
    ..@@@.@@@...
    ..@@..@@....
    ..@...@.....
    ............
    ............

u+e05c:
U+E05C:
    ............
    ............
    ....@@@@@@..
    ....@@@@@@..
    ....@....@..
    ....@....@..
    ....@....@..
    ...@@...@@..
    ..@@@..@@@..
    ..@@...@@...
    ............
    ............

u+e05d:
U+E05D:
    ............
    ............
    .....@......
    ....@@..@...
    ..@@@@...@..
    ..@@@@.@.@..
    ..@@@@.@.@..
    ..@@@@...@..
    ....@@..@...
    .....@......
    ............
    ............

u+e05e:
U+E05E:
    ............
    ............
    ............
    ..@...@.....
    ..@@@@@@....
    ..@@@@@@@...
    ..@@@@@@@...
    ...@@@@@....
    ......@.....
    ............
    ............
    ............

u+e05f:
U+E05F:
    ............
    ............
    ............
    ....@...@...
    ...@@@@@@...
    ..@@@@@@@...
    ..@@@@@@@...
    ...@@@@@....
    ....@.......
    ............
    ............
    ............

u+e060:
U+E060:
    ............
    ............
    .....@@.....
    ....@@@@....
    ...@@@@@@...
    ..@@@@@@@@..
    ....@@@@....
    ....@@@@....
    ....@@@@....
    ....@@@@....
    ............
    ............

u+e061:
U+E061:
    ............
    ............
    ....@@@@....
    ....@@@@....
    ....@@@@....
    ....@@@@....
    ..@@@@@@@@..
    ...@@@@@@...
    ....@@@@....
    .....@@.....
    ............
    ............

u+e062:
U+E062:
    ............
    ............
    ......@.....
    ......@@....
    ..@@@@@@@...
    ..@@@@@@@@..
    ..@@@@@@@@..
    ..@@@@@@@...
    ......@@....
    ......@.....
    ............
    ............

u+e063:
U+E063:
    ............
    ............
    .....@......
    ....@@......
    ...@@@@@@@..
    ..@@@@@@@@..
    ..@@@@@@@@..
    ...@@@@@@@..
    ....@@......
    .....@......
    ............
    ............

u+e064:
U+E064:
    ............
    ............
    .....@@.....
    ....@@@@....
    ...@@@@@@...
    ..@@@@@@@@..
    ....@@@@....
    ....@@@@....
    ....@@@@....
    .....@@@@...
    ............
    ............

u+e065:
U+E065:
    ............
    ............
    .....@@@@...
    ....@@@@....
    ....@@@@....
    ....@@@@....
    ..@@@@@@@@..
    ...@@@@@@...
    ....@@@@....
    .....@@.....
    ............
    ............

u+e066:
U+E066:
    ............
    ............
    .....@@.....
    ....@@@@....
    ...@@@@@@...
    ..@@@@@@@@..
    ....@@@@....
    ....@@@@....
    ....@@@@....
    ...@@@@.....
    ............
    ............

u+e067:
U+E067:
    ............
    ............
    ...@@@@.....
    ....@@@@....
    ....@@@@....
    ....@@@@....
    ..@@@@@@@@..
    ...@@@@@@...
    ....@@@@....
    .....@@.....
    ............
    ............

u+e068:
U+E068:
    ............
    ............
    ......@.....
    ......@@....
    ...@@@@@@...
    ..@@@@@@@@..
    ..@@@@@@@@..
    ..@@@@@@@...
    ..@...@@....
    ......@.....
    ............
    ............

u+e069:
U+E069:
    ............
    ............
    .....@......
    ....@@......
    ...@@@@@@...
    ..@@@@@@@@..
    ..@@@@@@@@..
    ...@@@@@@@..
    ....@@...@..
    .....@......
    ............
    ............

u+e06a:
U+E06A:
    ............
    ............
    ......@.....
    ..@...@@....
    ..@@@@@@@...
    ..@@@@@@@@..
    ..@@@@@@@@..
    ...@@@@@@...
    ......@@....
    ......@.....
    ............
    ............

u+e06b:
U+E06B:
    ............
    ............
    .....@......
    ....@@...@..
    ...@@@@@@@..
    ..@@@@@@@@..
    ..@@@@@@@@..
    ...@@@@@@...
    ....@@......
    .....@......
    ............
    ............

u+e06c:
U+E06C:
    ............
    ............
    ............
    .....@@.....
    ....@@@@....
    ...@@@@@@...
    ....@@@@....
    ....@@@@....
    ....@@@@....
    ....@@@@....
    ............
    ............

u+e06d:
U+E06D:
    ............
    ............
    ............
    ....@@@@....
    ....@@@@....
    ....@@@@....
    ....@@@@....
    ...@@@@@@...
    ....@@@@....
    .....@@.....
    ............
    ............

u+e06e:
U+E06E:
    ............
    ............
    ............
    ......@.....
    ..@@@@@@....
    ..@@@@@@@...
    ..@@@@@@@...
    ..@@@@@@....
    ......@.....
    ............
    ............
    ............

u+e06f:
U+E06F:
    ............
    ............
    ............
    ....@.......
    ...@@@@@@...
    ..@@@@@@@...
    ..@@@@@@@...
    ...@@@@@@...
    ....@.......
    ............
    ............
    ............

u+e070:
U+E070:
    ............
    ............
    ..@@@@@@@@..
    ...@@@@@@...
    ..@.@@@@.@..
    ..@@.@@.@@..
    ..@@@..@@@..
    ..@@@@@@@@..
    ..@@@@@@@@..
    ..@@@@@@@@..
    ............
    ............

u+e071:
U+E071:
    ............
    ............
    ..@@@@@@@@..
    ..@......@..
    ..@@....@@..
    ..@.@..@.@..
    ..@..@@..@..
    ..@......@..
    ..@......@..
    ..@@@@@@@@..
    ............
    ............

u+e072:
U+E072:
    ............
    ............
    ............
    ..@@@@@@@@..
    ...@@@@@@...
    ..@.@@@@.@..
    ..@@.@@.@@..
    ..@@@..@@@..
    ..@@@@@@@@..
    ..@@@@@@@@..
    ............
    ............

u+e073:
U+E073:
    ............
    ............
    ............
    ..@@@@@@@@..
    ..@......@..
    ..@@....@@..
    ..@.@..@.@..
    ..@..@@..@..
    ..@......@..
    ..@@@@@@@@..
    ............
    ............

u+e074:
U+E074:
    ............
    ............
    ..@@........
    ..@@@.@@....
    ..@@.@@@@...
    ...@.@@@@...
    ..@@@.@@....
    ..@@.@@@@...
    ....@@@@@@..
    ....@@@@@@..
    ............
    ............

u+e075:
U+E075:
    ............
    ............
    ............
    .....@@.....
    ....@@@@....
    ....@@@@....
    .....@@.....
    ....@@@@....
    ...@@@@@@...
    ...@@@@@@...
    ............
    ............

u+e076:
U+E076:
    ............
    ............
    ..@@@@@@@@..
    ..@.@@@@.@..
    ..@@.@@.@@..
    ..@@@..@@@..
    ..@@@..@@@..
    ..@@.@@.@@..
    ..@.@@@@.@..
    ..@@@@@@@@..
    ............
    ............

u+e077:
U+E077:
    ............
    ............
    ....@@@@....
    ...@@..@@...
    ...@@..@@...
    ...@@..@@...
    ...@@..@@...
    ...@@@@@@...
    ...@@..@@...
    ....@@@@....
    ............
    ............

u+e078:
U+E078:
    ............
    ............
    ....@@@@....
    ...@@..@@...
    ...@@@@@@...
    ...@@..@@...
    ...@@..@@...
    ...@@..@@...
    ...@@..@@...
    ....@@@@....
    ............
    ............

u+e079:
U+E079:
    ............
    ............
    ....@@@@....
    ...@@@@@@...
    ..@@@@@@@@..
    ..@@....@@..
    ..@@....@@..
    ..@@@@@@@@..
    ...@@@@@@...
    ....@@@@....
    ............
    ............

u+e07a:
U+E07A:
    ............
    ............
    ............
    .....@@.....
    ....@@@@....
    ...@@@@@@...
    ....@@@@....
    ....@@@@....
    ....@@@@....
    .....@@@@...
    ............
    ............

u+e07b:
U+E07B:
    ............
    ............
    ............
    .....@@@@...
    ....@@@@....
    ....@@@@....
    ....@@@@....
    ...@@@@@@...
    ....@@@@....
    .....@@.....
    ............
    ............

u+e07c:
U+E07C:
    ............
    ............
    ............
    .....@@.....
    ....@@@@....
    ...@@@@@@...
    ....@@@@....
    ....@@@@....
    ....@@@@....
    ...@@@@.....
    ............
    ............

u+e07d:
U+E07D:
    ............
    ............
    ............
    ...@@@@.....
    ....@@@@....
    ....@@@@....
    ....@@@@....
    ...@@@@@@...
    ....@@@@....
    .....@@.....
    ............
    ............

u+e07e:
U+E07E:
    ............
    ............
    ............
    ......@.....
    ...@@@@@....
    ..@@@@@@@...
    ..@@@@@@@...
    ..@@@@@@....
    ..@...@.....
    ............
    ............
    ............

u+e07f:
U+E07F:
    ............
    ............
    ............
    ....@.......
    ...@@@@@....
    ..@@@@@@@...
    ..@@@@@@@...
    ...@@@@@@...
    ....@...@...
    ............
    ............
    ............

u+e080:
U+E080:
    ............
    ............
    ............
    ......@.....
    .....@.@....
    ....@@.@@...
    ...@@@...@..
    ....@@@@@...
    .....@@@....
    ......@.....
    ............
    ............

u+e081:
U+E081:
    ............
    ............
    ............
    ...@@@@@@@..
    ...@@@.@@@..
    ...@@@.@@@..
    ...@@@...@..
    ...@@@@@@@..
    ...@@@@@@@..
    ...@@@@@@@..
    ............
    ............

u+e082:
U+E082:
    ............
    ............
    ............
    ...@@.@.@@..
    ...@@...@@..
    .....@@@....
    ...@.@@@.@..
    .....@@@....
    ...@@...@@..
    ...@@.@.@@..
    ............
    ............

u+e083:
U+E083:
    ............
    ............
    ............
    ....@.......
    ....@.@@@@..
    ....@@@@....
    ....@@.@@...
    .....@@@@...
    ...@@@@.@...
    ........@...
    ............
    ............

u+e084:
U+E084:
    ............
    ............
    ............
    ............
    ..@@@@@@@...
    ..@.....@@..
    ..@.....@@..
    ..@.....@@..
    ..@@@@@@@...
    ............
    ............
    ............

u+e085:
U+E085:
    ............
    ............
    ............
    ............
    ..@@@@@@@...
    ..@.....@@..
    ..@.@@..@@..
    ..@.....@@..
    ..@@@@@@@...
    ............
    ............
    ............

u+e086:
U+E086:
    ............
    ............
    ............
    ............
    ..@@@@@@@...
    ..@.....@@..
    ..@.@@@.@@..
    ..@.....@@..
    ..@@@@@@@...
    ............
    ............
    ............

u+e087:
U+E087:
    ............
    ............
    ............
    .....@@.....
    ...@@@@@@...
    ...@....@...
    ...@....@...
    ...@....@...
    ...@....@...
    ...@@@@@@...
    ............
    ............

u+e088:
U+E088:
    ............
    ............
    ............
    .....@@.....
    ...@@@@@@...
    ...@....@...
    ...@.@..@...
    ...@.@@.@...
    ...@....@...
    ...@@@@@@...
    ............
    ............

u+e089:
U+E089:
    ............
    ............
    ............
    .....@@.....
    ...@@@@@@...
    ...@....@...
    ...@.@@.@...
    ...@.@@.@...
    ...@....@...
    ...@@@@@@...
    ............
    ............

u+e08a:
U+E08A:
    ............
    ............
    ............
    .....@@@....
    ....@@@@@...
    ....@...@...
    ....@...@...
    ....@...@...
    ....@...@...
    ....@@@@@...
    ............
    ............

u+e08b:
U+E08B:
    ............
    ............
    ............
    .....@@@....
    ....@@@@@...
    ....@...@...
    ....@...@...
    ....@.@.@...
    ....@...@...
    ....@@@@@...
    ............
    ............

u+e08c:
U+E08C:
    ............
    ............
    ............
    .....@@@....
    ....@@@@@...
    ....@...@...
    ....@.@.@...
    ....@.@.@...
    ....@...@...
    ....@@@@@...
    ............
    ............

u+e08d:
U+E08D:
    ............
    ............
    .....@@@....
    ....@@@@@...
    ....@...@...
    ....@...@...
    ....@...@...
    ....@...@...
    ....@...@...
    ....@@@@@...
    ............
    ............

u+e08e:
U+E08E:
    ............
    ............
    .....@@@....
    ....@@@@@...
    ....@...@...
    ....@...@...
    ....@.@.@...
    ....@.@.@...
    ....@...@...
    ....@@@@@...
    ............
    ............

u+e08f:
U+E08F:
    ............
    ............
    .....@@@....
    ....@@@@@...
    ....@...@...
    ....@.@.@...
    ....@.@.@...
    ....@.@.@...
    ....@...@...
    ....@@@@@...
    ............
    ............

u+e090:
U+E090:
    ............
    ............
    ............
    ...@@@@@@@..
    ...@.....@..
    ..@@.....@..
    ..@@.....@..
    ...@.....@..
    ...@@@@@@@..
    ............
    ............
    ............

u+e091:
U+E091:
    ............
    ............
    ............
    ...@@@@@@@..
    ...@.....@..
    ..@@...@.@..
    ..@@..@@.@..
    ...@.....@..
    ...@@@@@@@..
    ............
    ............
    ............

u+e092:
U+E092:
    ............
    ............
    ............
    ...@@@@@@@..
    ...@.....@..
    ..@@..@@.@..
    ..@@.@@@.@..
    ...@.....@..
    ...@@@@@@@..
    ............
    ............
    ............

u+e093:
U+E093:
    ............
    ............
    ............
    ...@@@@@@@..
    ...@.....@..
    ..@@.@@@.@..
    ..@@.@@@.@..
    ...@.....@..
    ...@@@@@@@..
    ............
    ............
    ............

u+e094:
U+E094:
    ............
    ............
    ......@.....
    ...@..@@....
    ..@...@@@@..
    ..@.@.@@@@..
    ..@.@.@@@@..
    ..@...@@@@..
    ...@..@@....
    ......@.....
    ............
    ............

u+e095:
U+E095:
    ............
    ............
    .....@......
    .....@@.....
    ...@.@@@@@..
    ...@.@@@@@..
    ...@.@@@@@..
    ...@.@@@@@..
    .....@@.....
    .....@......
    ............
    ............

u+e096:
U+E096:
    ............
    ............
    ............
    ...@....@...
    ...@...@@...
    ...@..@@@...
    ...@.@@@@...
    ...@..@@@...
    ...@...@@...
    ...@....@...
    ............
    ............

u+e097:
U+E097:
    ............
    ............
    ............
    ....@...@...
    ...@@..@@...
    ..@@@.@@@...
    .@@@@@@@@...
    ..@@@.@@@...
    ...@@..@@...
    ....@...@...
    ............
    ............

u+e098:
U+E098:
    ............
    ............
    ............
    ....@@@.....
    ...@@@@@....
    ..@@@@@@@...
    ..@@@@@@@...
    ..@@@@@@@...
    ...@@@@@....
    ....@@@.....
    ............
    ............

u+e099:
U+E099:
    ............
    ............
    ............
    ..@@@@@@@...
    ..@@@@@@@...
    ..@@@@@@@...
    ..@@@@@@@...
    ..@@@@@@@...
    ..@@@@@@@...
    ..@@@@@@@...
    ............
    ............

u+e09a:
U+E09A:
    ............
    ............
    ............
    ....@.......
    ....@@......
    ....@@@.....
    ....@@@@....
    ....@@@.....
    ....@@......
    ....@.......
    ............
    ............

u+e09b:
U+E09B:
    ............
    ............
    ............
    ...@@.@@....
    ...@@.@@....
    ...@@.@@....
    ...@@.@@....
    ...@@.@@....
    ...@@.@@....
    ...@@.@@....
    ............
    ............

u+e09c:
U+E09C:
    ............
    ............
    ............
    ...@....@...
    ...@@...@...
    ...@@@..@...
    ...@@@@.@...
    ...@@@..@...
    ...@@...@...
    ...@....@...
    ............
    ............

u+e09d:
U+E09D:
    ............
    ............
    ............
    ..@...@.....
    ..@@..@@....
    ..@@@.@@@...
    ..@@@@@@@@..
    ..@@@.@@@...
    ..@@..@@....
    ..@...@.....
    ............
    ............

u+e09e:
U+E09E:
    ............
    ............
    .......@....
    ......@.....
    .....@@.....
    ....@@......
    ...@@@@@@...
    ......@@....
    .....@@.....
    .....@......
    ....@.......
    ............

u+e09f:
U+E09F:
    ............
    ............
    ..@@@@@@@@..
    ..@......@..
    ..@......@..
    ..@......@..
    ..@......@..
    ..@@@@@@@@..
    .....@@.....
    ...@@@@@@...
    ............
    ............

u+e0a0:
U+E0A0:
    ............
    ............
    ............
    ....@@@@....
    ...@@.@@@...
    ...@@@@@....
    ...@@@@.....
    ...@@@@@@...
    ....@@@@....
    ............
    ............
    ............

u+e0a1:
U+E0A1:
    ............
    ............
    .....@@.....
    .....@@.....
    ....@@@@....
    ....@@@@....
    ...@@@@@@...
    ...@@..@@...
    ..@@@..@@@..
    ..@@....@@..
    ............
    ............

u+e0a2:
U+E0A2:
    ............
    ............
    ............
    ....@@@@....
    ...@@.@@@...
    ...@@.@@@...
    ...@@...@...
    ...@@@@@@...
    ....@@@@....
    ............
    ............
    ............

u+e0a3:
U+E0A3:
    ............
    ............
    ............
    ....@@@.....
    ...@@.@@....
    ..@@@.@@@...
    ..@@@...@...
    ..@@@@@@@...
    ...@@@@@....
    ....@@@.....
    ............
    ............

u+e0a4:
U+E0A4:
    ............
    ............
    ............
    .....@@.....
    .....@@@@...
    .....@@.....
    .....@@@@...
    .....@@.....
    ....@@@@....
    .....@@.....
    ............
    ............

u+e0a5:
U+E0A5:
    ............
    ............
    ............
    .....@..@...
    ....@@@.....
    ....@@@.@...
    ....@.@.....
    ...@...@....
    ...@...@....
    ....@@@.....
    ............
    ............

u+e0a6:
U+E0A6:
    ............
    ............
    ............
    ....@@@@....
    ...@....@...
    ...@....@...
    ...@....@...
    ...@@@@@@...
    ...@@@@@@...
    ...@@@@@@...
    ............
    ............

u+e0a7:
U+E0A7:
    ............
    ............
    ...@@@@@@...
    ...@@..@@...
    ...@@..@@...
    ...@@..@@...
    ...@@..@@...
    ...@@@@@@...
    ...@@..@@...
    ...@@@@@@...
    ............
    ............

u+e0a8:
U+E0A8:
    ............
    ............
    ...@@@@@@...
    ...@@..@@...
    ...@@@@@@...
    ...@@..@@...
    ...@@..@@...
    ...@@..@@...
    ...@@..@@...
    ...@@@@@@...
    ............
    ............

u+e0a9:
U+E0A9:
    ............
    ............
    ............
    ....@@@@....
    ...@....@...
    ..@..@@..@..
    ..@..@@..@..
    ...@....@...
    ....@@@@....
    ............
    ............
    ............

u+e0aa:
U+E0AA:
    ............
    ............
    ....@@@.....
    ...@@@@@....
    ..@@.@.@@...
    ..@@.@.@@...
    ..@@@@@@@...
    ..@@@@@@@...
    ..@@@@@@@...
    ..@.@.@.@...
    ............
    ............

u+e0ab:
U+E0AB:
    ............
    ............
    ....@@@@....
    ...@@@@@@...
    ..@@@..@@@..
    ..@@.@@.@@..
    ..@@.@@.@@..
    ..@@@..@@@..
    ...@@@@@@...
    ....@@@@....
    ............
    ............

u+e0ac:
U+E0AC:
    ............
    ............
    ............
    ...@@@@.....
    ...@...@....
    ...@@@..@...
    ...@..@.@...
    ...@@.@.@...
    ...@@@@@@...
    ............
    ............
    ............

u+e0ad:
U+E0AD:
    ............
    ............
    ...@@@@@@...
    ..@......@..
    ..@......@..
    ..@......@..
    ..@......@..
    ...@@@@.@...
    ......@@....
    ......@.....
    ............
    ............

u+e0ae:
U+E0AE:
    ............
    ............
    .....@@.....
    ....@..@....
    ...@@..@@...
    ..@@@..@@@..
    ..@@@..@@@..
    ...@@@@@@...
    ....@..@....
    .....@@.....
    ............
    ............

u+e0af:
U+E0AF:
    ............
    ............
    ............
    ...@@@@@@...
    ...@....@...
    ...@....@...
    ...@....@...
    ...@@@@@@...
    .....@@.....
    ...@@@@@@...
    ............
    ............

u+e0b0:
U+E0B0:
    ............
    ............
    ............
    ......@.....
    ...@..@@....
    ....@.@.@...
    .....@@@....
    ....@.@.@...
    ...@..@@....
    ......@.....
    ............
    ............

u+e0b1:
U+E0B1:
    ............
    ............
    ..@@@@@.....
    ..@@@@@.....
    ..@@@@@.....
    ..@@@@@.@@..
    ..@@@@@.@@..
    ........@@..
    .....@@@@@..
    .....@@@@@..
    ............
    ............

u+e0b2:
U+E0B2:
    ............
    ............
    .....@@.....
    ....@@@@....
    ...@@@@@@...
    ..@@@@@@@@..
    ...@....@...
    ...@.@@.@...
    ...@.@@.@...
    ...@@@@@@...
    ............
    ............

u+e0b3:
U+E0B3:
    ............
    ............
    .....@@@....
    .....@@@....
    .....@@@....
    .....@@@....
    .....@@@....
    ............
    .....@@@....
    .....@@@....
    ............
    ............

u+e0b4:
U+E0B4:
    ............
    ............
    ............
    ..@@@@@@@@..
    ..@......@..
    ..@......@..
    ..@......@..
    ..@......@..
    ..@......@..
    ..@@@@@@@@..
    ............
    ............

u+e0b5:
U+E0B5:
    ............
    ............
    ............
    ..@@@@@@@@..
    ..@...@..@..
    ..@...@@@@..
    ..@...@..@..
    ..@...@@@@..
    ..@...@..@..
    ..@@@@@@@@..
    ............
    ............

u+e0b6:
U+E0B6:
    ............
    ............
    ............
    ..@@@@@@@@..
    ..@......@..
    ..@......@..
    ..@@@@@@@@..
    ..@.@..@.@..
    ..@.@..@.@..
    ..@@@@@@@@..
    ............
    ............

u+e0b7:
U+E0B7:
    ............
    ............
    ............
    ..@@@@@@@@..
    ..@......@..
    ..@......@..
    ..@......@..
    ..@@@@@@@@..
    ..@......@..
    ..@@@@@@@@..
    ............
    ............

u+e0b8:
U+E0B8:
    ............
    ............
    ............
    ..@@@@@@@@..
    ..@.@..@.@..
    ..@@@@@@@@..
    ..@.@..@.@..
    ..@@@@@@@@..
    ..@.@..@.@..
    ..@@@@@@@@..
    ............
    ............

u+e0b9:
U+E0B9:
    ............
    ............
    ............
    ..@@@@@.....
    ..@...@.....
    ..@...@.....
    ..@@@@@.@@..
    .........@..
    .....@...@..
    .....@@@@@..
    ............
    ............

u+e0ba:
U+E0BA:
    ............
    ............
    ............
    ..@@@@@@@@..
    ..@..@...@..
    ..@..@@@@@..
    ..@..@.@.@..
    ..@..@.@@@..
    ..@..@.@.@..
    ..@@@@@@@@..
    ............
    ............

u+e0bb:
U+E0BB:
    ............
    ............
    ............
    ..@@@@@@@@..
    ..@..@...@..
    ..@..@@@@@..
    ..@..@.@.@..
    ..@..@@@.@..
    ..@..@.@.@..
    ..@@@@@@@@..
    ............
    ............

u+e0bc:
U+E0BC:
    ............
    ............
    ............
    ..@@@@@@@@..
    ..@...@..@..
    ..@...@@@@..
    ..@@@@@..@..
    ..@...@@@@..
    ..@...@..@..
    ..@@@@@@@@..
    ............
    ............

u+e0bd:
U+E0BD:
    ............
    ............
    ............
    ..@@@@@@@@..
    ..@...@..@..
    ..@...@..@..
    ..@@@@@@@@..
    ..@.@..@.@..
    ..@.@..@.@..
    ..@@@@@@@@..
    ............
    ............

u+e0be:
U+E0BE:
    ............
    ............
    ............
    ..@@@@@@@@..
    ..@...@..@..
    ..@...@..@..
    ..@@@@@..@..
    ..@......@..
    ..@......@..
    ..@@@@@@@@..
    ............
    ............

u+e0bf:
U+E0BF:
    ............
    ............
    .....@@.....
    ....@..@....
    ...@....@...
    ..@@@@@@@@..
    ...@....@...
    ...@.@@.@...
    ...@.@@.@...
    ...@@@@@@...
    ............
    ............

u+e0c0:
U+E0C0:
    ............
    ............
    ............
    ...@@...@@..
    ...@.@@@.@..
    ....@...@...
    ....@...@...
    ....@...@...
    ...@.@@@.@..
    ...@@...@@..
    ............
    ............

u+e0c1:
U+E0C1:
    ............
    ............
    ..@@....@@..
    ..@.@@@@.@..
    ...@....@...
    ...@....@...
    ...@....@...
    ...@....@...
    ..@.@@@@.@..
    ..@@....@@..
    ............
    ............

u+e0c2:
U+E0C2:
    ............
    ............
    ............
    ...@.....@..
    ....@@@@@...
    ....@...@...
    ....@...@...
    ....@...@...
    ....@@@@@...
    ...@.....@..
    ............
    ............

u+e0c3:
U+E0C3:
    ............
    ............
    ..@......@..
    ...@@@@@@...
    ...@....@...
    ...@....@...
    ...@....@...
    ...@....@...
    ...@@@@@@...
    ..@......@..
    ............
    ............

u+e0c4:
U+E0C4:
    ............
    ............
    ............
    ...@.@.@.@..
    ............
    ...@@@@@@@..
    ...@.....@..
    ...@@@@@@@..
    ............
    ...@.@.@.@..
    ............
    ............

u+e0c5:
U+E0C5:
    ............
    ............
    ...@.@.@.@..
    ............
    ...@@@@@@@..
    ...@.....@..
    ...@.....@..
    ...@@@@@@@..
    ............
    ...@.@.@.@..
    ............
    ............

u+e0c6:
U+E0C6:
    ............
    ............
    ............
    .....@@@....
    ....@@@@@...
    ...@@.@.@@..
    ...@@.@.@@..
    ...@@@@@@@..
    ...@@@@@@@..
    ...@.@.@.@..
    ............
    ............

u+e0c7:
U+E0C7:
    ............
    ............
    ............
    .....@@@....
    ....@@@@@...
    ...@@.@.@@..
    ...@@@@@@@..
    ...@@@@@@@..
    ...@@@@@@@..
    ...@.@.@.@..
    ............
    ............

u+e0c8:
U+E0C8:
    ............
    ............
    .....@@@....
    ....@@@@@...
    ...@@.@.@@..
    ...@@@@@@@..
    ...@@@@@@@..
    ...@@@@@@@..
    ...@@@@@@@..
    ...@.@.@.@..
    ............
    ............

u+e0c9:
U+E0C9:
    ............
    ............
    ............
    ....@..@@...
    ..@...@@@...
    .....@@@....
    ...@@.@.....
    ..@..@......
    ..@..@......
    ...@@.......
    ............
    ............

u+e0ca:
U+E0CA:
    ............
    ............
    .....@..@@..
    .......@.@..
    ...@..@.@...
    .....@.@....
    ...@@.@.....
    ..@..@......
    ..@..@......
    ...@@.......
    ............
    ............

u+e0cb:
U+E0CB:
    ............
    ............
    ............
    .....@..@@..
    ...@...@.@..
    ......@.@...
    ....@@.@....
    ...@..@.....
    ...@..@.....
    ....@@......
    ............
    ............

u+e0cc:
U+E0CC:
    ............
    ............
    .....@..@...
    ....@@@.....
    ....@.@.@...
    ....@.@.....
    ....@.@.@...
    ...@...@....
    ...@...@....
    ....@@@.....
    ............
    ............

u+e0cd:
U+E0CD:
    ............
    ............
    ............
    .....@..@...
    ....@@@.....
    ....@.@.@...
    ....@.@.....
    ...@...@....
    ...@...@....
    ....@@@.....
    ............
    ............

u+e0ce:
U+E0CE:
    ............
    ............
    ............
    ....@@@.....
    ....@.@@@...
    ....@.@.....
    ....@.@@@...
    ....@.@.....
    ...@...@....
    ....@@@.....
    ............
    ............

u+e0cf:
U+E0CF:
    ............
    ............
    ....@@@.....
    ....@.@@@...
    ....@.@.....
    ....@.@@@...
    ....@.@.....
    ...@...@....
    ...@...@....
    ....@@@.....
    ............
    ............

u+e0d0:
U+E0D0:
    ............
    ............
    .....@@.....
    ....@..@....
    ...@....@...
    ..@@@..@@@..
    ....@..@....
    ....@..@....
    ....@..@....
    ....@@@@....
    ............
    ............

u+e0d1:
U+E0D1:
    ............
    ............
    ....@@@@....
    ....@..@....
    ....@..@....
    ....@..@....
    ..@@@..@@@..
    ...@....@...
    ....@..@....
    .....@@.....
    ............
    ............

u+e0d2:
U+E0D2:
    ............
    ............
    ......@.....
    ......@@....
    ..@@@@@.@...
    ..@......@..
    ..@......@..
    ..@@@@@.@...
    ......@@....
    ......@.....
    ............
    ............

u+e0d3:
U+E0D3:
    ............
    ............
    .....@......
    ....@@......
    ...@.@@@@@..
    ..@......@..
    ..@......@..
    ...@.@@@@@..
    ....@@......
    .....@......
    ............
    ............

u+e0d4:
U+E0D4:
    ............
    ............
    ............
    ......@.....
    .....@.@....
    ....@...@...
    ...@@@.@@@..
    .....@.@....
    .....@.@....
    .....@@@....
    ............
    ............

u+e0d5:
U+E0D5:
    ............
    ............
    ............
    .....@@@....
    .....@.@....
    .....@.@....
    ...@@@.@@@..
    ....@...@...
    .....@.@....
    ......@.....
    ............
    ............

u+e0d6:
U+E0D6:
    ............
    ............
    ............
    ......@.....
    ......@@....
    ...@@@@.@...
    ...@.....@..
    ...@@@@.@...
    ......@@....
    ......@.....
    ............
    ............

u+e0d7:
U+E0D7:
    ............
    ............
    ............
    .....@......
    ....@@......
    ...@.@@@@...
    ..@.....@...
    ...@.@@@@...
    ....@@......
    .....@......
    ............
    ............

u+e0d8:
U+E0D8:
    ............
    ............
    ............
    .....@@.....
    ....@.@.....
    ..@@..@@@@..
    ..@...@.....
    ..@@..@@@@..
    ....@.@.....
    .....@@.....
    ............
    ............

u+e0d9:
U+E0D9:
    ............
    ............
    .....@@.....
    ....@.@.....
    ...@..@@@@..
    ..@...@.....
    ..@...@.....
    ...@..@@@@..
    ....@.@.....
    .....@@.....
    ............
    ............

u+e0da:
U+E0DA:
    ............
    ............
    ....@..@....
    ....@..@....
    ....@..@....
    ...@@@@@@...
    ...@....@...
    ....@..@....
    .....@@.....
    .....@@.....
    ............
    ............

u+e0db:
U+E0DB:
    ............
    ............
    ............
    ....@..@....
    ....@..@....
    ...@@@@@@...
    ...@....@...
    ....@..@....
    .....@@.....
    .....@@.....
    ............
    ............

u+e0dc:
U+E0DC:
    ............
    ............
    ............
    ....@@@@....
    ...@....@...
    ..@..@.@....
    ..@...@.....
    ..@...@@@@..
    ...@....@...
    ....@@@@....
    ............
    ............

u+e0dd:
U+E0DD:
    ............
    ............
    .....@@.....
    ....@..@....
    ....@..@....
    ...@....@...
    ...@....@...
    ..@..@@..@..
    ..@.@..@.@..
    ..@@....@@..
    ............
    ............

u+e0de:
U+E0DE:
    ............
    ............
    ....@@@@....
    ...@....@...
    ..@..@..@...
    ..@....@....
    ..@...@.....
    ..@....@@@..
    ...@....@...
    ....@@@@....
    ............
    ............

u+e0df:
U+E0DF:
    ............
    ............
    ............
    ......@.....
    .....@.@....
    .....@.@....
    ....@...@...
    ....@.@.@...
    ...@.@.@.@..
    ...@@...@@..
    ............
    ............

u+e0e0:
U+E0E0:
    ............
    ............
    .....@......
    ....@@..@...
    ..@@.@...@..
    ..@..@.@.@..
    ..@..@.@.@..
    ..@@.@...@..
    ....@@..@...
    .....@......
    ............
    ............

u+e0e1:
U+E0E1:
    ............
    ............
    ............
    .....@......
    ....@@..@...
    ..@@.@...@..
    ..@..@.@.@..
    ..@@.@...@..
    ....@@..@...
    .....@......
    ............
    ............

u+e0e2:
U+E0E2:
    ............
    ............
    .......@....
    ......@@....
    ...@@@.@.@..
    ...@...@.@..
    ...@...@.@..
    ...@@@.@.@..
    ......@@....
    .......@....
    ............
    ............

u+e0e3:
U+E0E3:
    ............
    ............
    ............
    .......@....
    ......@@....
    ...@@@.@.@..
    ...@...@.@..
    ...@@@.@.@..
    ......@@....
    .......@....
    ............
    ............

u+e0e4:
U+E0E4:
    ............
    ............
    ...@....@...
    ...@...@@...
    ...@..@.@...
    ...@.@..@...
    ...@.@..@...
    ...@..@.@...
    ...@...@@...
    ...@....@...
    ............
    ............

u+e0e5:
U+E0E5:
    ............
    ............
    .....@...@..
    ....@@..@@..
    ...@.@.@.@..
    ..@..@@..@..
    ..@..@@..@..
    ...@.@.@.@..
    ....@@..@@..
    .....@...@..
    ............
    ............

u+e0e6:
U+E0E6:
    ............
    ............
    ....@@@@....
    ...@....@...
    ..@......@..
    ..@......@..
    ..@......@..
    ..@......@..
    ...@....@...
    ....@@@@....
    ............
    ............

u+e0e7:
U+E0E7:
    ............
    ............
    ..@@@@@@@@..
    ..@......@..
    ..@......@..
    ..@......@..
    ..@......@..
    ..@......@..
    ..@......@..
    ..@@@@@@@@..
    ............
    ............

u+e0e8:
U+E0E8:
    ............
    ............
    ....@.......
    ....@@......
    ....@.@.....
    ....@..@....
    ....@..@....
    ....@.@.....
    ....@@......
    ....@.......
    ............
    ............

u+e0e9:
U+E0E9:
    ............
    ............
    ....@..@....
    ....@..@....
    ....@..@....
    ....@..@....
    ....@..@....
    ....@..@....
    ....@..@....
    ....@..@....
    ............
    ............

u+e0ea:
U+E0EA:
    ............
    ............
    ...@....@...
    ...@@...@...
    ...@.@..@...
    ...@..@.@...
    ...@..@.@...
    ...@.@..@...
    ...@@...@...
    ...@....@...
    ............
    ............

u+e0eb:
U+E0EB:
    ............
    ............
    ..@...@.....
    ..@@..@@....
    ..@.@.@.@...
    ..@..@@..@..
    ..@..@@..@..
    ..@.@.@.@...
    ..@@..@@....
    ..@...@.....
    ............
    ............

u+e0ec:
U+E0EC:
    ............
    ............
    ............
    ....@@@@@...
    ....@...@...
    ....@...@...
    ....@...@...
    ...@@..@@...
    ..@.@.@.@...
    ..@@..@@....
    ............
    ............

u+e0ed:
U+E0ED:
    ............
    ............
    ....@@@@@...
    ....@...@...
    ....@...@...
    ....@...@...
    ....@...@...
    ...@@..@@...
    ..@.@.@.@...
    ..@@..@@....
    ............
    ............

u+e0ee:
U+E0EE:
    ............
    ............
    ............
    ............
    ............
    ............
    ........@...
    ........@...
    ......@.@...
    ......@.@...
    ............
    ............

u+e0ef:
U+E0EF:
    ............
    ............
    ............
    ............
    ........@...
    ........@...
    ......@.@...
    ......@.@...
    ....@.@.@...
    ....@.@.@...
    ............
    ............

u+e0f0:
U+E0F0:
    ............
    ............
    ........@...
    ........@...
    ......@.@...
    ......@.@...
    ....@.@.@...
    ....@.@.@...
    ..@.@.@.@...
    ..@.@.@.@...
    ............
    ............

u+e0f1:
U+E0F1:
    ............
    ............
    ............
    ............
    ............
    ............
    ............
    ........@...
    ........@...
    ......@.@...
    ............
    ............

u+e0f2:
U+E0F2:
    ............
    ............
    ............
    ............
    ............
    ........@...
    ........@...
    ......@.@...
    ......@.@...
    ....@.@.@...
    ............
    ............

u+e0f3:
U+E0F3:
    ............
    ............
    ............
    ........@...
    ........@...
    ......@.@...
    ......@.@...
    ....@.@.@...
    ....@.@.@...
    ..@.@.@.@...
    ............
    ............

u+e0f4:
U+E0F4:
    ............
    ............
    ............
    ...@....@...
    ...@...@@...
    ...@..@.@...
    ...@.@..@...
    ...@..@.@...
    ...@...@@...
    ...@....@...
    ............
    ............

u+e0f5:
U+E0F5:
    ............
    ............
    ............
    ....@...@...
    ...@@..@@...
    ..@.@.@.@...
    .@..@@..@...
    ..@.@.@.@...
    ...@@..@@...
    ....@...@...
    ............
    ............

u+e0f6:
U+E0F6:
    ............
    ............
    ............
    ....@@@.....
    ...@...@....
    ..@.....@...
    ..@.....@...
    ..@.....@...
    ...@...@....
    ....@@@.....
    ............
    ............

u+e0f7:
U+E0F7:
    ............
    ............
    ............
    ..@@@@@@@...
    ..@.....@...
    ..@.....@...
    ..@.....@...
    ..@.....@...
    ..@.....@...
    ..@@@@@@@...
    ............
    ............

u+e0f8:
U+E0F8:
    ............
    ............
    ............
    ....@.......
    ....@@......
    ....@.@.....
    ....@..@....
    ....@.@.....
    ....@@......
    ....@.......
    ............
    ............

u+e0f9:
U+E0F9:
    ............
    ............
    ............
    ....@..@....
    ....@..@....
    ....@..@....
    ....@..@....
    ....@..@....
    ....@..@....
    ....@..@....
    ............
    ............

u+e0fa:
U+E0FA:
    ............
    ............
    ............
    ....@....@..
    ....@@...@..
    ....@.@..@..
    ....@..@.@..
    ....@.@..@..
    ....@@...@..
    ....@....@..
    ............
    ............

u+e0fb:
U+E0FB:
    ............
    ............
    ............
    ....@...@...
    ....@@..@@..
    ....@.@.@.@.
    ....@..@@..@
    ....@.@.@.@.
    ....@@..@@..
    ....@...@...
    ............
    ............

u+e0fc:
U+E0FC:
    ............
    ............
    ............
    ....@@@@....
    ...@....@...
    ..@......@..
    ..@......@..
    ..@@@..@@@..
    ..@.@..@.@..
    ...@@..@@...
    ............
    ............

u+e0fd:
U+E0FD:
    ............
    ............
    ............
    ....@@@@....
    ...@....@...
    ..@......@..
    ..@......@..
    ..@@@..@@@..
    ..@@@..@@@..
    ...@@..@@...
    ............
    ............

u+e0fe:
U+E0FE:
    ............
    ............
    ............
    ....@@@@@...
    ....@@@@@...
    ....@...@...
    ....@...@...
    ...@@..@@...
    ..@@@.@@@...
    ..@@..@@....
    ............
    ............

u+e0ff:
U+E0FF:
    ............
    ............
    .....@@@....
    .....@@@....
    ............
    .....@@@....
    .....@@@....
    .....@@@....
    .....@@@....
    .....@@@....
    ............
    ............

u+e100:
U+E100:
    ............
    ............
    ............
    ...@@@@..@..
    ....@@@@@@..
    ....@...@@..
    ...@@.@.@@..
    ...@@...@...
    ...@@@@@@...
    ...@..@@@@..
    ............
    ............

u+e101:
U+E101:
    ............
    ............
    ............
    ...@@@..@...
    ....@@@@@...
    ....@..@@...
    ...@@..@....
    ...@@@@@....
    ...@..@@@...
    ............
    ............
    ............

u+e102:
U+E102:
    ............
    ............
    ............
    ..@@@@@@@@..
    ..@@....@@..
    ..@.@..@.@..
    ..@..@@..@..
    ..@......@..
    ..@@@@@@@@..
    ............
    ............
    ............

u+e103:
U+E103:
    ............
    ............
    ............
    ..@@@@@@@@..
    ...@@@@@@...
    ..@.@@@@.@..
    ..@@....@@..
    ..@@@@@@@@..
    ..@@@@@@@@..
    ............
    ............
    ............

u+e104:
U+E104:
    ............
    ............
    .....@@.....
    ....@@@@....
    ...@@@@@@...
    ..@@@@@@@@..
    ..@@@@@@@@..
    ...@@@@@@...
    ....@@@@....
    .....@@.....
    ............
    ............

u+e105:
U+E105:
    ............
    ............
    ............
    ......@.....
    .....@@@....
    ....@@@@@...
    ...@@@@@@@..
    ....@@@@@...
    .....@@@....
    ......@.....
    ............
    ............

u+e106:
U+E106:
    ............
    ............
    ...@@..@@...
    ..@@@@@@@@..
    ..@@@@@@@@..
    ..@@@@@@@@..
    ..@@@@@@@@..
    ...@@@@@@...
    ....@@@@....
    .....@@.....
    ............
    ............

u+e107:
U+E107:
    ............
    ............
    ............
    ...@@..@@...
    ..@@@@@@@@..
    ..@@@@@@@@..
    ..@@@@@@@@..
    ...@@@@@@...
    ....@@@@....
    .....@@.....
    ............
    ............

u+e108:
U+E108:
    ............
    ............
    ......@.....
    .....@.@....
    ....@...@...
    ...@@@.@@@..
    .....@.@....
    .....@.@....
    .....@.@....
    .....@@@....
    ............
    ............

u+e109:
U+E109:
    ............
    ............
    .....@@@....
    .....@.@....
    .....@.@....
    .....@.@....
    ...@@@.@@@..
    ....@...@...
    .....@.@....
    ......@.....
    ............
    ............

u+e10a:
U+E10A:
    ............
    ............
    ............
    ......@.....
    ......@@....
    ..@@@@@.@...
    ..@......@..
    ..@@@@@.@...
    ......@@....
    ......@.....
    ............
    ............

u+e10b:
U+E10B:
    ............
    ............
    ............
    .....@......
    ....@@......
    ...@.@@@@@..
    ..@......@..
    ...@.@@@@@..
    ....@@......
    .....@......
    ............
    ............

u+e10c:
U+E10C:
    ............
    ............
    ......@.....
    ......@.....
    ....@.@.@...
    ...@..@..@..
    ...@..@..@..
    ...@.....@..
    ....@...@...
    .....@@@....
    ............
    ............

u+e10d:
U+E10D:
    ............
    ............
    ............
    ......@.....
    ....@.@.@...
    ...@..@..@..
    ...@..@..@..
    ...@.....@..
    ....@...@...
    .....@@@....
    ............
    ............

u+e10e:
U+E10E:
    ............
    ............
    ............
    ......@.....
    .....@.@....
    ....@...@...
    ...@@@@@@@..
    ....@...@...
    ....@.@.@...
    ....@@@@@...
    ............
    ............

u+e10f:
U+E10F:
    ............
    ............
    ............
    ....@..@....
    ....@.@@@...
    ....@..@....
    ....@..@....
    ....@..@....
    ...@@@.@....
    ....@..@....
    ............
    ............

u+e110:
U+E110:
    ............
    ............
    ............
    ......@.....
    ....@@@@@...
    ....@...@...
    ....@...@...
    ....@...@...
    ....@...@...
    ....@@@@@...
    ............
    ............

u+e111:
U+E111:
    ............
    ............
    ............
    ......@.....
    ....@@@@@...
    ....@...@...
    ....@...@...
    ....@.@.@...
    ....@...@...
    ....@@@@@...
    ............
    ............

u+e112:
U+E112:
    ............
    ............
    ............
    ......@.....
    ....@@@@@...
    ....@...@...
    ....@.@.@...
    ....@.@.@...
    ....@...@...
    ....@@@@@...
    ............
    ............

u+e113:
U+E113:
    ............
    ............
    ............
    ............
    ..@@@@@@@...
    ..@.....@...
    ..@.....@@..
    ..@.....@...
    ..@@@@@@@...
    ............
    ............
    ............

u+e114:
U+E114:
    ............
    ............
    ............
    ............
    ..@@@@@@@...
    ..@.....@...
    ..@.@...@@..
    ..@.....@...
    ..@@@@@@@...
    ............
    ............
    ............

u+e115:
U+E115:
    ............
    ............
    ............
    ............
    ..@@@@@@@...
    ..@.....@...
    ..@.@@..@@..
    ..@.....@...
    ..@@@@@@@...
    ............
    ............
    ............

u+e116:
U+E116:
    ............
    ............
    ............
    ............
    ..@@@@@@@...
    ..@.....@...
    ..@.@@@.@@..
    ..@.....@...
    ..@@@@@@@...
    ............
    ............
    ............

u+e117:
U+E117:
    ............
    ............
    ............
    ............
    ...@@@@@@@..
    ...@.....@..
    ..@@.....@..
    ...@.....@..
    ...@@@@@@@..
    ............
    ............
    ............

u+e118:
U+E118:
    ............
    ............
    ............
    ............
    ...@@@@@@@..
    ...@.....@..
    ..@@...@.@..
    ...@.....@..
    ...@@@@@@@..
    ............
    ............
    ............

u+e119:
U+E119:
    ............
    ............
    ............
    ............
    ...@@@@@@@..
    ...@.....@..
    ..@@..@@.@..
    ...@.....@..
    ...@@@@@@@..
    ............
    ............
    ............

u+e11a:
U+E11A:
    ............
    ............
    ............
    ............
    ...@@@@@@@..
    ...@.....@..
    ..@@.@@@.@..
    ...@.....@..
    ...@@@@@@@..
    ............
    ............
    ............

u+e11b:
U+E11B:
    ............
    ............
    ......@.....
    ...@..@@....
    ..@...@.@@..
    ..@.@.@..@..
    ..@.@.@..@..
    ..@...@.@@..
    ...@..@@....
    ......@.....
    ............
    ............

u+e11c:
U+E11C:
    ............
    ............
    ............
    ......@.....
    ...@..@@....
    ..@...@.@@..
    ..@.@.@..@..
    ..@...@.@@..
    ...@..@@....
    ......@.....
    ............
    ............

u+e11d:
U+E11D:
    ............
    ............
    .....@......
    .....@@.....
    ...@.@.@@@..
    ...@.@...@..
    ...@.@...@..
    ...@.@.@@@..
    .....@@.....
    .....@......
    ............
    ............

u+e11e:
U+E11E:
    ............
    ............
    ............
    .....@......
    .....@@.....
    ...@.@.@@@..
    ...@.@...@..
    ...@.@.@@@..
    .....@@.....
    .....@......
    ............
    ............

u+e11f:
U+E11F:
    ............
    ............
    ............
    ............
    ........@...
    ...@@@@@@@..
    ........@...
    ....@.......
    ...@@@@@@@..
    ....@.......
    ............
    ............

u+e120:
U+E120:
    ............
    ............
    ............
    ...@@@@@@@..
    ...@.....@..
    ...@@...@@..
    ...@.@@@.@..
    ...@.....@..
    ...@.....@..
    ...@@@@@@@..
    ............
    ............

u+e121:
U+E121:
    ............
    ............
    ............
    ...@@@@@@@..
    ....@@@@@...
    ...@.@@@.@..
    ...@@...@@..
    ...@@@@@@@..
    ...@@@@@@@..
    ...@@@@@@@..
    ............
    ............

u+e122:
U+E122:
    ............
    ............
    ............
    ...@@@@@@@..
    ...@.....@..
    ...@@...@@..
    ...@.@@@.@..
    ...@.....@..
    ...@@@@@@@..
    ............
    ............
    ............

u+e123:
U+E123:
    ............
    ............
    ............
    ...@@@@@@@..
    ....@@@@@...
    ...@.@@@.@..
    ...@@...@@..
    ...@@@@@@@..
    ...@@@@@@@..
    ............
    ............
    ............

u+e124:
U+E124:
    ............
    ............
    ............
    ...@@@@@@@..
    ...@@...@@..
    ...@.@.@.@..
    ...@..@..@..
    ...@.....@..
    ...@.....@..
    ...@@@@@@@..
    ............
    ............

u+e125:
U+E125:
    ............
    ............
    ............
    ...@@@@@@@..
    ...@@...@@..
    ...@.@.@.@..
    ...@..@..@..
    ...@.....@..
    ...@@@@@@@..
    ............
    ............
    ............

u+e126:
U+E126:
    ............
    ............
    ............
    ............
    ...@@@@@@@..
    ...@@...@@..
    ...@.@@@.@..
    ...@.....@..
    ...@@@@@@@..
    ............
    ............
    ............

u+e127:
U+E127:
    ............
    ............
    ............
    ............
    ...@@@@@@@..
    ....@@@@@...
    ...@.@@@.@..
    ...@@...@@..
    ...@@@@@@@..
    ............
    ............
    ............

u+e128:
U+E128:
    ............
    ............
    ............
    .....@@@....
    ....@...@...
    ...@..@..@..
    ...@..@@.@..
    ...@.....@..
    ....@...@...
    .....@@@....
    ............
    ............

u+e129:
U+E129:
    ............
    ............
    ............
    ......@.....
    .....@.@....
    ....@.@.@...
    ...@..@@.@..
    ....@...@...
    .....@.@....
    ......@.....
    ............
    ............

u+e12a:
U+E12A:
    ............
    ............
    ............
    ...@@@@@@@..
    ...@.....@..
    ...@..@..@..
    ...@..@@.@..
    ...@.....@..
    ...@.....@..
    ...@@@@@@@..
    ............
    ............

u+e12b:
U+E12B:
    ............
    ............
    ......@.....
    .....@@@....
    ....@@@@@...
    ......@.....
    ......@.....
    ......@.....
    ......@.....
    ......@.....
    ............
    ............

u+e12c:
U+E12C:
    ............
    ............
    ......@.....
    ......@.....
    ......@.....
    ......@.....
    ......@.....
    ....@@@@@...
    .....@@@....
    ......@.....
    ............
    ............

u+e12d:
U+E12D:
    ............
    ............
    ............
    .......@....
    .......@@...
    ..@@@@@@@@..
    .......@@...
    .......@....
    ............
    ............
    ............
    ............

u+e12e:
U+E12E:
    ............
    ............
    ............
    ....@.......
    ...@@.......
    ..@@@@@@@@..
    ...@@.......
    ....@.......
    ............
    ............
    ............
    ............

u+e12f:
U+E12F:
    ............
    ............
    ....@..@....
    ....@.@@@...
    ....@..@....
    ....@..@....
    ....@..@....
    ....@..@....
    ...@@@.@....
    ....@..@....
    ............
    ............

u+e130:
U+E130:
    ............
    ............
    ..@@@@@@@@..
    ..@......@..
    ..@......@..
    ..@......@..
    ..@......@..
    ..@......@..
    ..@......@..
    ..@@@@@@@@..
    ............
    ............

u+e131:
U+E131:
    ............
    ............
    ..@@@@@@@@..
    ..@...@..@..
    ..@...@@@@..
    ..@...@..@..
    ..@...@..@..
    ..@...@@@@..
    ..@...@..@..
    ..@@@@@@@@..
    ............
    ............

u+e132:
U+E132:
    ............
    ............
    ..@@@@@@@@..
    ..@......@..
    ..@......@..
    ..@......@..
    ..@@@@@@@@..
    ..@.@..@.@..
    ..@.@..@.@..
    ..@@@@@@@@..
    ............
    ............

u+e133:
U+E133:
    ............
    ............
    ..@@@@@@@@..
    ..@......@..
    ..@......@..
    ..@@@@@@@@..
    ..@......@..
    ..@@@@@@@@..
    ..@......@..
    ..@@@@@@@@..
    ............
    ............

u+e134:
U+E134:
    ............
    ............
    ..@@@@@@@@..
    ..@.@..@.@..
    ..@@@@@@@@..
    ..@.@..@.@..
    ..@.@..@.@..
    ..@@@@@@@@..
    ..@.@..@.@..
    ..@@@@@@@@..
    ............
    ............

u+e135:
U+E135:
    ............
    ............
    ..@@@@@.....
    ..@...@.....
    ..@...@.....
    ..@...@.@@..
    ..@@@@@..@..
    .........@..
    .....@...@..
    .....@@@@@..
    ............
    ............

u+e136:
U+E136:
    ............
    ............
    ..@@@@@@@@..
    ..@..@...@..
    ..@..@...@..
    ..@..@@@@@..
    ..@..@.@.@..
    ..@..@.@@@..
    ..@..@.@.@..
    ..@@@@@@@@..
    ............
    ............

u+e137:
U+E137:
    ............
    ............
    ..@@@@@@@@..
    ..@..@...@..
    ..@..@...@..
    ..@..@@@@@..
    ..@..@.@.@..
    ..@..@@@.@..
    ..@..@.@.@..
    ..@@@@@@@@..
    ............
    ............

u+e138:
U+E138:
    ............
    ............
    ..@@@@@@@@..
    ..@..@...@..
    ..@..@@@@@..
    ..@..@...@..
    ..@@@@...@..
    ..@..@@@@@..
    ..@..@...@..
    ..@@@@@@@@..
    ............
    ............

u+e139:
U+E139:
    ............
    ............
    ..@@@@@@@@..
    ..@...@..@..
    ..@...@..@..
    ..@...@..@..
    ..@@@@@@@@..
    ..@.@..@.@..
    ..@.@..@.@..
    ..@@@@@@@@..
    ............
    ............

u+e13a:
U+E13A:
    ............
    ............
    ..@@@@@@@@..
    ..@...@..@..
    ..@...@..@..
    ..@...@..@..
    ..@@@@@..@..
    ..@......@..
    ..@......@..
    ..@@@@@@@@..
    ............
    ............

u+e13b:
U+E13B:
    ............
    ............
    ............
    ......@.....
    .....@@@....
    ....@@@@@...
    ......@.....
    ......@.....
    ......@.....
    ......@.....
    ............
    ............

u+e13c:
U+E13C:
    ............
    ............
    ............
    ......@.....
    ......@.....
    ......@.....
    ......@.....
    ....@@@@@...
    .....@@@....
    ......@.....
    ............
    ............

u+e13d:
U+E13D:
    ............
    ............
    ............
    ............
    ......@.....
    ......@@....
    ..@@@@@@@...
    ......@@....
    ......@.....
    ............
    ............
    ............

u+e13e:
U+E13E:
    ............
    ............
    ............
    ............
    ....@.......
    ...@@.......
    ..@@@@@@@...
    ...@@.......
    ....@.......
    ............
    ............
    ............

u+e13f:
U+E13F:
    ............
    ............
    ............
    ............
    ........@...
    ..@@@@@@@@..
    ........@...
    ...@........
    ..@@@@@@@@..
    ...@........
    ............
    ............

u+e140:
U+E140:
    ............
    ............
    .....@@@....
    ....@...@...
    ...@.@.@.@..
    ...@.@.@.@..
    ...@.....@..
    ...@.....@..
    ...@@.@.@@..
    ...@.@.@.@..
    ............
    ............

u+e141:
U+E141:
    ............
    ............
    ............
    .....@@@....
    ....@...@...
    ...@.@.@.@..
    ...@.@.@.@..
    ...@.....@..
    ...@@.@.@@..
    ...@.@.@.@..
    ............
    ............

u+e142:
U+E142:
    ............
    ............
    .....@@@....
    ....@...@...
    ...@.@.@.@..
    ...@.....@..
    ...@.....@..
    ...@.....@..
    ...@@.@.@@..
    ...@.@.@.@..
    ............
    ............

u+e143:
U+E143:
    ............
    ............
    ............
    .....@@@....
    ....@...@...
    ...@.@.@.@..
    ...@.....@..
    ...@.....@..
    ...@@.@.@@..
    ...@.@.@.@..
    ............
    ............

u+e144:
U+E144:
    ............
    ............
    ............
    ...@@@@@@@..
    ...@.....@..
    ...@.....@..
    ...@.@@@.@..
    ...@.@.@.@..
    ...@.@.@.@..
    ....@@@@@@..
    ............
    ............

u+e145:
U+E145:
    ............
    ............
    ............
    ...@@@@@@@..
    ...@.....@..
    ...@.....@..
    ...@.@@@.@..
    ...@.@@@.@..
    ...@.@@@.@..
    ....@@@@@@..
    ............
    ............

u+e146:
U+E146:
    ............
    ............
    ..@@@@@@@@..
    ..@......@..
    ..@......@..
    ..@......@..
    ..@.@@@@.@..
    ..@.@..@.@..
    ..@.@..@.@..
    ...@@@@@@@..
    ............
    ............

u+e147:
U+E147:
    ............
    ............
    ..@@@@@@@@..
    ..@......@..
    ..@......@..
    ..@......@..
    ..@.@@@@.@..
    ..@.@.@@.@..
    ..@.@.@@.@..
    ...@@@@@@@..
    ............
    ............

u+e148:
U+E148:
    ............
    ............
    ............
    .....@@@....
    .....@@@....
    ...@@@@@@@..
    ...@@@@@@@..
    ...@.@.@.@..
    ...@@@@@@@..
    ...@@@@@@@..
    ............
    ............

u+e149:
U+E149:
    ............
    ............
    .....@@@....
    .....@@@....
    ...@@@@@@@..
    ...@@@@@@@..
    ...@@@@@@@..
    ...@.@.@.@..
    ...@@@@@@@..
    ...@@@@@@@..
    ............
    ............

u+e14a:
U+E14A:
    ............
    ............
    ............
    ..@@@@@@@@..
    ..@......@..
    ..@......@..
    ..@......@..
    ..@@@@@@@@..
    .....@@.....
    ...@@@@@@...
    ............
    ............

u+e14b:
U+E14B:
    ............
    ............
    ...@@@@@@...
    ...@@@@@@...
    ............
    ....@@@@....
    ....@@@@....
    ............
    .....@@.....
    .....@@.....
    ............
    ............

u+e14c:
U+E14C:
    ............
    ............
    ............
    ........@@..
    .....@@.@@..
    ..@@.@@.@@..
    ..@@.@@.@@..
    .....@@.@@..
    ........@@..
    ............
    ............
    ............

u+e14d:
U+E14D:
    ............
    ............
    ............
    ....@@@@....
    ...@@.@@@...
    ..@@@@@@....
    ..@@@@@.....
    ..@@@@......
    ...@@@@@@...
    ....@@@@....
    ............
    ............

u+e14e:
U+E14E:
    ............
    ............
    ............
    .......@@...
    .....@@@@...
    ...@@@@@@...
    ..@@@@@@@...
    ...@@@@@@...
    .....@@@@...
    .......@@...
    ............
    ............

u+e14f:
U+E14F:
    ............
    ............
    ............
    ..@@........
    ..@@@@......
    ..@@@@@@....
    ..@@@@@@@...
    ..@@@@@@....
    ..@@@@......
    ..@@........
    ............
    ............

u+e150:
U+E150:
    ............
    ............
    ............
    .....@@.....
    ....@.@@....
    ...@@.@@@...
    ..@@@...@@..
    ...@@@@@@...
    ....@@@@....
    .....@@.....
    ............
    ............

u+e151:
U+E151:
    ............
    ............
    ............
    .....@@@....
    ....@@.@@...
    ...@@@.@@@..
    ...@@@...@..
    ...@@@@@@@..
    ....@@@@@...
    .....@@@....
    ............
    ............

u+e152:
U+E152:
    ............
    ............
    ............
    .....@......
    ....@@..@...
    ..@@@@...@..
    ..@@@@.@.@..
    ..@@@@...@..
    ....@@..@...
    .....@......
    ............
    ............

u+e153:
U+E153:
    ............
    ............
    .....@@.....
    ....@@@@....
    ...@@@@@@...
    ..@@@@@@@@..
    ..@@@@@@@@..
    ...@@@@@@...
    .....@@.....
    ....@@@@....
    ............
    ............

u+e154:
U+E154:
    ............
    ............
    ............
    .....@@.....
    ....@@@@....
    ...@@@@@@...
    ..@@@@@@@@..
    ...@@@@@@...
    .....@@.....
    ....@@@@....
    ............
    ............

u+e155:
U+E155:
    ............
    ............
    ............
    .....@@.....
    ....@@@@....
    ...@@@@@@...
    ..@@@@@@@@..
    ....@@@@....
    ....@@@@....
    ....@@@@....
    ............
    ............

u+e156:
U+E156:
    ............
    ............
    ............
    ....@@@@....
    ....@@@@....
    ....@@@@....
    ..@@@@@@@@..
    ...@@@@@@...
    ....@@@@....
    .....@@.....
    ............
    ............

u+e157:
U+E157:
    ............
    ............
    ............
    ......@.....
    ......@@....
    ...@@@@@@...
    ...@@@@@@@..
    ...@@@@@@...
    ......@@....
    ......@.....
    ............
    ............

u+e158:
U+E158:
    ............
    ............
    ............
    .....@......
    ....@@......
    ...@@@@@@...
    ..@@@@@@@...
    ...@@@@@@...
    ....@@......
    .....@......
    ............
    ............

u+e159:
U+E159:
    ............
    ............
    ............
    .....@@.....
    ....@@@@....
    ...@@@@@@...
    ..@@@@@@@@..
    ............
    ..@@@@@@@@..
    ............
    ............
    ............

u+e15a:
U+E15A:
    ............
    ............
    ............
    ......@.....
    .....@@@....
    ....@@@@@...
    ...@@@@@@@..
    ............
    ...@@@@@@@..
    ............
    ............
    ............

u+e15b:
U+E15B:
    ............
    ............
    ............
    ............
    ..@@@@@@@...
    ..@.....@...
    ..@.....@@..
    ..@.....@@..
    ..@.....@...
    ..@@@@@@@...
    ............
    ............

u+e15c:
U+E15C:
    ............
    ............
    ............
    ............
    ..@@@@@@@...
    ..@.....@...
    ..@.@...@@..
    ..@.@@..@@..
    ..@.....@...
    ..@@@@@@@...
    ............
    ............

u+e15d:
U+E15D:
    ............
    ............
    ............
    ............
    ..@@@@@@@...
    ..@.....@...
    ..@.@@..@@..
    ..@.@@@.@@..
    ..@.....@...
    ..@@@@@@@...
    ............
    ............

u+e15e:
U+E15E:
    ............
    ............
    ............
    ............
    ..@@@@@@@...
    ..@.....@...
    ..@.@@@.@@..
    ..@.@@@.@@..
    ..@.....@...
    ..@@@@@@@...
    ............
    ............

u+e15f:
U+E15F:
    ............
    ............
    ............
    ....@@@.....
    ...@@.@@....
    ...@@.@@....
    ...@@@@@....
    ...@@.@@....
    ...@@.@@....
    ....@@@.....
    ............
    ............

u+e160:
U+E160:
    ............
    ............
    ............
    .....@@.....
    ....@@@.....
    .....@@.....
    .....@@.....
    .....@@.....
    .....@@.....
    ....@@@@....
    ............
    ............

u+e161:
U+E161:
    ............
    ............
    ............
    .....@@@....
    ....@@.@@...
    .......@@...
    ......@@....
    .....@@.....
    ....@@......
    ....@@@@@...
    ............
    ............

u+e162:
U+E162:
    ............
    ............
    ............
    .....@@@....
    ....@@.@@...
    .......@@...
    .....@@@....
    .......@@...
    ....@@.@@...
    .....@@@....
    ............
    ............

u+e163:
U+E163:
    ............
    ............
    ............
    ......@@....
    .....@@@....
    ....@.@@....
    ...@..@@....
    ...@@@@@@...
    ......@@....
    ......@@....
    ............
    ............

u+e164:
U+E164:
    ............
    ............
    ............
    ....@@@@@...
    ....@@......
    ....@@@@....
    .......@@...
    .......@@...
    ....@@.@@...
    .....@@@....
    ............
    ............

u+e165:
U+E165:
    ............
    ............
    ............
    ......@@....
    .....@@.....
    ....@@......
    ....@@@@....
    ....@@.@@...
    ....@@.@@...
    .....@@@....
    ............
    ............

u+e166:
U+E166:
    ............
    ............
    ............
    ....@@@@@...
    .......@@...
    ......@@....
    ......@@....
    .....@@.....
    .....@@.....
    .....@@.....
    ............
    ............

u+e167:
U+E167:
    ............
    ............
    ............
    .....@@@....
    ....@@.@@...
    ....@@.@@...
    .....@@@....
    ....@@.@@...
    ....@@.@@...
    .....@@@....
    ............
    ............

u+e168:
U+E168:
    ............
    ............
    ............
    .....@@@....
    ....@@.@@...
    ....@@.@@...
    .....@@@@...
    .......@@...
    ......@@....
    .....@@.....
    ............
    ............

u+e169:
U+E169:
    ............
    ............
    ....@@@@....
    ...@@..@@...
    ...@@..@@...
    ...@@.@@@...
    ...@@@.@@...
    ...@@..@@...
    ...@@..@@...
    ....@@@@....
    ............
    ............

u+e16a:
U+E16A:
    ............
    ............
    .....@@.....
    ....@@@.....
    .....@@.....
    .....@@.....
    .....@@.....
    .....@@.....
    .....@@.....
    ....@@@@....
    ............
    ............

u+e16b:
U+E16B:
    ............
    ............
    ....@@@@....
    ...@@..@@...
    .......@@...
    ......@@....
    .....@@.....
    ....@@......
    ...@@.......
    ...@@@@@@...
    ............
    ............

u+e16c:
U+E16C:
    ............
    ............
    ....@@@@....
    ...@@..@@...
    .......@@...
    .....@@@....
    .......@@...
    .......@@...
    ...@@..@@...
    ....@@@@....
    ............
    ............

u+e16d:
U+E16D:
    ............
    ............
    ......@@....
    .....@@@....
    ....@.@@....
    ...@..@@....
    ...@@@@@@...
    ......@@....
    ......@@....
    ......@@....
    ............
    ............

u+e16e:
U+E16E:
    ............
    ............
    ...@@@@@@...
    ...@@.......
    ...@@.......
    ...@@@@@....
    .......@@...
    .......@@...
    ...@@..@@...
    ....@@@@....
    ............
    ............

u+e16f:
U+E16F:
    ............
    ............
    .....@@@....
    ....@@......
    ...@@.......
    ...@@@@@....
    ...@@..@@...
    ...@@..@@...
    ...@@..@@...
    ....@@@@....
    ............
    ............

u+e170:
U+E170:
    ............
    ............
    ...@@@@@@...
    .......@@...
    .......@@...
    ......@@....
    ......@@....
    .....@@.....
    .....@@.....
    .....@@.....
    ............
    ............

u+e171:
U+E171:
    ............
    ............
    ....@@@@....
    ...@@..@@...
    ...@@..@@...
    ....@@@@....
    ...@@..@@...
    ...@@..@@...
    ...@@..@@...
    ....@@@@....
    ............
    ............

u+e172:
U+E172:
    ............
    ............
    ....@@@@....
    ...@@..@@...
    ...@@..@@...
    ...@@..@@...
    ....@@@@@...
    .......@@...
    ......@@....
    ....@@@.....
    ............
    ............

u+e173:
U+E173:
    ............
    ............
    ............
    ...@@@@@@...
    ...@@..@@...
    ...@@.@@@...
    ...@@@@@@...
    ...@@@.@@...
    ...@@..@@...
    ...@@@@@@...
    ............
    ............

u+e174:
U+E174:
    ............
    ............
    ............
    .....@@.....
    ....@@@.....
    .....@@.....
    .....@@.....
    .....@@.....
    .....@@.....
    .....@@.....
    ............
    ............

u+e175:
U+E175:
    ............
    ............
    ............
    ...@@@@@@...
    .......@@...
    .......@@...
    ...@@@@@@...
    ...@@.......
    ...@@.......
    ...@@@@@@...
    ............
    ............

u+e176:
U+E176:
    ............
    ............
    ............
    ...@@@@@@...
    .......@@...
    .......@@...
    ...@@@@@@...
    .......@@...
    .......@@...
    ...@@@@@@...
    ............
    ............

u+e177:
U+E177:
    ............
    ............
    ............
    ...@@..@@...
    ...@@..@@...
    ...@@..@@...
    ...@@@@@@...
    .......@@...
    .......@@...
    .......@@...
    ............
    ............

u+e178:
U+E178:
    ............
    ............
    ............
    ...@@@@@@...
    ...@@.......
    ...@@.......
    ...@@@@@@...
    .......@@...
    .......@@...
    ...@@@@@@...
    ............
    ............

u+e179:
U+E179:
    ............
    ............
    ............
    ...@@@@@@...
    ...@@.......
    ...@@.......
    ...@@@@@@...
    ...@@..@@...
    ...@@..@@...
    ...@@@@@@...
    ............
    ............

u+e17a:
U+E17A:
    ............
    ............
    ............
    ...@@@@@@...
    .......@@...
    .......@@...
    .......@@...
    .......@@...
    .......@@...
    .......@@...
    ............
    ............

u+e17b:
U+E17B:
    ............
    ............
    ............
    ...@@@@@@...
    ...@@..@@...
    ...@@..@@...
    ....@@@@....
    ...@@..@@...
    ...@@..@@...
    ...@@@@@@...
    ............
    ............

u+e17c:
U+E17C:
    ............
    ............
    ............
    ...@@@@@@...
    ...@@..@@...
    ...@@..@@...
    ...@@@@@@...
    .......@@...
    .......@@...
    .......@@...
    ............
    ............

u+e17d:
U+E17D:
    ............
    ............
    ...@@@@@@...
    ...@@..@@...
    ...@@.@@@...
    ...@@.@@@...
    ...@@@.@@...
    ...@@@.@@...
    ...@@..@@...
    ...@@@@@@...
    ............
    ............

u+e17e:
U+E17E:
    ............
    ............
    ......@@....
    .....@@@....
    ....@@@@....
    ......@@....
    ......@@....
    ......@@....
    ......@@....
    ......@@....
    ............
    ............

u+e17f:
U+E17F:
    ............
    ............
    ...@@@@@@...
    .......@@...
    .......@@...
    ...@@@@@@...
    ...@@.......
    ...@@.......
    ...@@.......
    ...@@@@@@...
    ............
    ............

u+e180:
U+E180:
    ............
    ............
    ...@@@@@@...
    .......@@...
    .......@@...
    ...@@@@@@...
    .......@@...
    .......@@...
    .......@@...
    ...@@@@@@...
    ............
    ............

u+e181:
U+E181:
    ............
    ............
    ...@@..@@...
    ...@@..@@...
    ...@@..@@...
    ...@@@@@@...
    .......@@...
    .......@@...
    .......@@...
    .......@@...
    ............
    ............

u+e182:
U+E182:
    ............
    ............
    ...@@@@@@...
    ...@@.......
    ...@@.......
    ...@@@@@@...
    .......@@...
    .......@@...
    .......@@...
    ...@@@@@@...
    ............
    ............

u+e183:
U+E183:
    ............
    ............
    ...@@@@@@...
    ...@@.......
    ...@@.......
    ...@@@@@@...
    ...@@..@@...
    ...@@..@@...
    ...@@..@@...
    ...@@@@@@...
    ............
    ............

u+e184:
U+E184:
    ............
    ............
    ...@@@@@@...
    .......@@...
    .......@@...
    .......@@...
    .......@@...
    .......@@...
    .......@@...
    .......@@...
    ............
    ............

u+e185:
U+E185:
    ............
    ............
    ...@@@@@@...
    ...@@..@@...
    ...@@..@@...
    ....@@@@....
    ...@@..@@...
    ...@@..@@...
    ...@@..@@...
    ...@@@@@@...
    ............
    ............

u+e186:
U+E186:
    ............
    ............
    ...@@@@@@...
    ...@@..@@...
    ...@@..@@...
    ...@@@@@@...
    .......@@...
    .......@@...
    .......@@...
    .......@@...
    ............
    ............

u+e187:
U+E187:
    ............
    ............
    ...@@@@@@@..
    ...@@@.@@@..
    ...@@..@@@..
    ...@@@.@@@..
    ...@@@.@@@..
    ...@@@.@@@..
    ...@@...@@..
    ...@@@@@@@..
    ............
    ............

u+e188:
U+E188:
    ............
    ............
    ...@@@@@@@..
    ...@@...@@..
    ...@.@@@.@..
    ...@@@@.@@..
    ...@@@.@@@..
    ...@@.@@@@..
    ...@.....@..
    ...@@@@@@@..
    ............
    ............

u+e189:
U+E189:
    ............
    ............
    ...@@@@@@@..
    ...@@...@@..
    ...@.@@@.@..
    ...@@@..@@..
    ...@@@@@.@..
    ...@.@@@.@..
    ...@@...@@..
    ...@@@@@@@..
    ............
    ............

u+e18a:
U+E18A:
    ............
    ............
    ...@@@@@@@..
    ...@@@@.@@..
    ...@@@..@@..
    ...@@.@.@@..
    ...@.....@..
    ...@@@@.@@..
    ...@@@@.@@..
    ...@@@@@@@..
    ............
    ............

u+e18b:
U+E18B:
    ............
    ............
    ...@@@@@@@..
    ...@.....@..
    ...@.@@@@@..
    ...@....@@..
    ...@@@@@.@..
    ...@.@@@.@..
    ...@@...@@..
    ...@@@@@@@..
    ............
    ............

u+e18c:
U+E18C:
    ............
    ............
    ...@@@@@@@..
    ...@@...@@..
    ...@.@@@@@..
    ...@....@@..
    ...@.@@@.@..
    ...@.@@@.@..
    ...@@...@@..
    ...@@@@@@@..
    ............
    ............

u+e18d:
U+E18D:
    ............
    ............
    ...@@@@@@@..
    ...@.....@..
    ...@@@@@.@..
    ...@@@@.@@..
    ...@@@@.@@..
    ...@@@.@@@..
    ...@@@.@@@..
    ...@@@@@@@..
    ............
    ............

u+e18e:
U+E18E:
    ............
    ............
    ...@@@@@@@..
    ...@@...@@..
    ...@.@@@.@..
    ...@@...@@..
    ...@.@@@.@..
    ...@.@@@.@..
    ...@@...@@..
    ...@@@@@@@..
    ............
    ............

u+e18f:
U+E18F:
    ............
    ............
    ...@@@@@@@..
    ...@@...@@..
    ...@.@@@.@..
    ...@.@@@.@..
    ...@@....@..
    ...@@@@@.@..
    ...@@...@@..
    ...@@@@@@@..
    ............
    ............

u+e190:
U+E190:
    ............
    ............
    ............
    ............
    ............
    .....@@.....
    ....@@@@....
    ....@@@@....
    .....@@.....
    ............
    ............
    ............

u+e191:
U+E191:
    ............
    ............
    ............
    ............
    .....@@.....
    ....@@@@....
    ....@@@@....
    .....@@.....
    ............
    ............
    ............
    ............

u+e192:
U+E192:
    ............
    ............
    ............
    ............
    .....@@.....
    .....@@.....
    ............
    .....@@.....
    .....@@.....
    ............
    ............
    ............

u+e193:
U+E193:
    ............
    ............
    ............
    .....@@.....
    .....@@.....
    ............
    ............
    .....@@.....
    .....@@.....
    ............
    ............
    ............

u+e194:
U+E194:
    ............
    ............
    ............
    ............
    ...@@..@@...
    ...@@..@@...
    ............
    ...@@..@@...
    ...@@..@@...
    ............
    ............
    ............

u+e195:
U+E195:
    ............
    ............
    ............
    ...@@..@@...
    ...@@..@@...
    ............
    ............
    ...@@..@@...
    ...@@..@@...
    ............
    ............
    ............

u+e196:
U+E196:
    ............
    ............
    ...@@..@@...
    ...@@..@@...
    ............
    ...@@..@@...
    ...@@..@@...
    ............
    ...@@..@@...
    ...@@..@@...
    ............
    ............

u+e197:
char57751:
    ............
    ............
    .......@.@..
    .......@.@..
    ...@.@.@@@..
    ...@@@..@...
    ...@@@..@...
    ....@...@...
    ...@@@@@@...
    ...@@@..@...
    ............
    ............

u+e198:
char57752:
    ............
    ............
    ........@...
    ..@...@@.@..
    ...@@@.@.@..
    ...@@@.@@@..
    ...@@@..@...
    ....@...@...
    ...@@@@@@...
    ...@@@..@...
    ............
    ............

u+e199:
char57753:
    ............
    ............
    .......@.@..
    ..@...@@.@..
    ...@@@.@@@..
    ...@@@..@...
    ...@@@..@...
    ....@...@...
    ...@@@@@@...
    ...@@@..@...
    ............
    ............

u+e19a:
char57754:
    ............
    ............
    ..@......@..
    ..@......@..
    ..@@@@@@@@..
    ...@.@@.@...
    ..@@.@@.@@..
    ..@@@@@@@@..
    ...@....@...
    ...@@@@@@...
    ............
    ............

u+e19b:
char57755:
    ............
    ............
    ...@@@@@@...
    ..@@@@@@@@..
    ..@@@@@@@@..
    ..@@@@@@@@..
    ..@@@@@@@...
    ..@@........
    ..@@........
    ...@@.......
    ............
    ............

u+e19c:
char57756:
    ............
    ............
    ..@@@@@.....
    ..@...@.....
    ..@..@@@@@..
    ..@@@@...@..
    ....@@...@..
    ....@@@@@@..
    ....@..@....
    ..@@@@@@@@..
    ............
    ............

u+e19d:
char57757:
    ............
    ............
    ...@....@...
    ....@..@....
    ...@@@@@@...
    ...@.@@.@...
    ..@@@@@@@@..
    ..@.@..@.@..
    ..@.@@@@.@..
    ....@..@....
    ............
    ............

u+e19e:
char57758:
    ............
    ............
    ..@@@@@@@@..
    ..@@@@@@@@..
    .....@@.....
    .....@@.....
    ..@@@@@@@@..
    ..@@.@@.@@..
    ..@@....@@..
    ..@@@@@@@@..
    ............
    ............

u+e19f:
char57759:
    ............
    ............
    ...@@@@@@...
    ..@@@@@@@@..
    ..@@@@@@@@..
    ..@@@@@@@@..
    ...@@@@@@@..
    .......@@...
    .......@....
    ......@.....
    ............
    ............

u+e1a0:
char57760:
    ............
    ............
    ....@@@@....
    ...@@..@@...
    ..@@@@.@@@..
    ..@@@@.@.@..
    ..@.@..@.@..
    ..@.@..@@@..
    ...@..@@@...
    ....@@@@....
    ............
    ............

u+e1a1:
char57761:
    ............
    ............
    ...@@@@@@...
    ..@@@@@@@@..
    ..@......@..
    ..@.@....@..
    ..@..@...@..
    ..@.@....@..
    ..@......@..
    ...@@@@@@...
    ............
    ............

u+e1a2:
char57762:
    ............
    ............
    ...@@@@@@...
    ..@@@@@@@@..
    ..@......@..
    ..@.@@@@.@..
    ..@......@..
    ..@.@@@@.@..
    ..@......@..
    ...@@@@@@...
    ............
    ............

u+e1a3:
char57763:
    ............
    ............
    ...@@@@@@...
    ..@@@@@@@@..
    ..@......@..
    ..@.@..@.@..
    ..@......@..
    ..@.@@@@.@..
    ..@......@..
    ...@@@@@@...
    ............
    ............

u+e1a4:
char57764:
    ............
    ............
    ..@@@@.@@@..
    ..@@@@.@@@..
    ..@@@@......
    .......@@@..
    ..@@@@.@@@..
    ..@@@@......
    ..@@@@.@@@..
    ..@@@@.@@@..
    ............
    ............

u+e1a5:
char57765:
    ............
    ............
    ..@@@.@@@@..
    ..@@@.@@@@..
    ..@@@.@@@@..
    ..@@@.@@@@..
    ............
    ..@@.@@.@@..
    ..@@.@@.@@..
    ..@@.@@.@@..
    ............
    ............

u+e1a6:
char57766:
    ............
    ............
    ....@@@@@@..
    ....@@@@@@..
    ....@....@..
    ....@....@..
    ....@....@..
    ....@....@..
    ..@@@..@@@..
    ..@@@..@@@..
    ............
    ............

u+e1a7:
char57767:
    ............
    ............
    ...@@@@@@...
    ..@@@@@@@@..
    ..@@@@@@@@..
    ..@@@@@@@@..
    ..@@@@@@@@..
    ...@@@@@@...
    ......@@....
    .....@@.....
    ............
    ............

u+e1a8:
char57768:
    ............
    ............
    ............
    ..@@@@@@@@@.
    ..@.@@@@@.@.
    ..@@.@@@.@@.
    ..@@@.@.@@@.
    ..@@.@.@.@@.
    ..@.@@@@@.@.
    ..@@@@@@@@@.
    ............
    ............

u+e1a9:
char57769:
    ...@........
    ...@@.......
    ...@@@......
    ...@@@@.....
    ...@@@@@....
    ...@@@@@@...
    ...@@@@@@...
    ...@@@@@....
    ...@@@@.....
    ...@@@......
    ...@@.......
    ...@........

u+e1aa:
char57770:
    ...@........
    ....@.......
    .....@......
    ......@.....
    .......@....
    ........@...
    ........@...
    .......@....
    ......@.....
    .....@......
    ....@.......
    ...@........

u+e1ab:
char57771:
    ........@...
    .......@@...
    ......@@@...
    .....@@@@...
    ....@@@@@...
    ...@@@@@@...
    ...@@@@@@...
    ....@@@@@...
    .....@@@@...
    ......@@@...
    .......@@...
    ........@...

u+e1ac:
char57772:
    ........@...
    .......@....
    ......@.....
    .....@......
    ....@.......
    ...@........
    ...@........
    ....@.......
    .....@......
    ......@.....
    .......@....
    ........@...

u+e1ad:
char57773:
    ....@.......
    ....@@......
    ....@@@.....
    ....@@@@....
    ....@@@@@...
    ....@@@@@...
    ....@@@@@...
    ....@@@@@...
    ....@@@@@...
    ....@@@@@...
    ....@@@@@...
    ....@@@@@...

u+e1ae:
char57774:
    ....@@@@@...
    ....@@@@@...
    ....@@@@@...
    ....@@@@@...
    ....@@@@@...
    ....@@@@@...
    ....@@@@@...
    ....@@@@@...
    .....@@@@...
    ......@@@...
    .......@@...
    ........@...

u+e1af:
char57775:
    ............
    ............
    ............
    ...@@@@@@@..
    ..@.......@.
    ....@@@@@...
    ...@.....@..
    .....@@@....
    ............
    ......@.....
    ............
    ............

u+e1b0:
char57776:
    ............
    ............
    ....@@@@....
    ...@@@@@@...
    ...@....@...
    ...@.@@.@...
    ...@.@@.@...
    ...@.@@.@...
    ...@....@...
    ...@@@@@@...
    ............
    ............

u+e1b1:
char57777:
    ......@.....
    ......@.....
    ......@.....
    ......@.....
    ......@.....
    ......@.....
    ......@.....
    ......@.....
    ......@.....
    ......@.....
    ......@.....
    ......@.....

u+e1b2:
char57778:
    ............
    ............
    ..@@@@@@@@..
    .....@@@@@..
    ......@@@@..
    ...@@.@@@@..
    ..@@@@.@@...
    ..@@@@......
    ..@@@@@.....
    ..@@@@@@@@..
    ............
    ............

u+e1b3:
char57779:
    ............
    ............
    ......@@....
    .....@.@....
    ....@..@@@..
    ..@@@..@....
    ..@@@..@....
    ....@..@@@..
    .....@.@....
    ......@@....
    ............
    ............

u+e1b4:
char57780:
    ............
    ............
    ......@.....
    ......@.....
    .....@@@....
    .....@@@....
    ....@@.@@...
    ....@...@...
    ...@@@.@@@..
    ...@.....@..
    ............
    ............

u+e1b5:
char57781:
    ............
    ............
    .....@@.....
    ...@.@.@....
    ....@@.@@...
    .....@@@....
    .....@@@....
    ....@@.@@...
    ...@.@.@....
    .....@@.....
    ............
    ............

u+e1b6:
char57782:
    ............
    ............
    ..@@....@@..
    ....@..@....
    .....@@.....
    ..@@.@@.@@..
    ....@@@@....
    ...@@@@@@...
    ..@.@@@@.@..
    ..@..@@..@..
    ............
    ............

u+e1b7:
char57783:
    ............
    ............
    ..@@....@@..
    ....@..@....
    ....@..@....
    ..@@.@@.@@..
    ....@@@@....
    ...@@@@@@...
    ..@..@@..@..
    ...@....@...
    ............
    ............

u+e1b8:
char57784:
    ............
    ............
    ..@......@..
    ..@@....@@..
    ..@.@@@@.@..
    ..@@@@@@@@..
    ..@..@@..@..
    ..@@@@@@@@..
    ...@@@@@@...
    ..@.@@@@.@..
    ............
    ............

u+e1b9:
char57785:
    ............
    ............
    ....@@@@....
    ...@@@@.@...
    ..@@@@.@@@..
    ..@@@.@@@@..
    ..@@@....@..
    ..@@@@@@@@..
    ...@@@@@@...
    ....@@@@....
    ............
    ............

u+e1ba:
char57786:
    ............
    ............
    ..@......@..
    ..@@.@@@@...
    ...@@...@...
    ...@@@..@...
    ....@@@.@...
    ...@@@@@....
    ..@@@.@@@...
    ..@@....@@..
    ............
    ............

u+e1bb:
char57787:
    ............
    ............
    ..@@@@@@@@..
    ..@......@..
    ..@......@..
    ..@......@..
    ..@.@@@@.@..
    ..@.@.@@.@..
    ..@.@.@@.@..
    ...@@@@@@@..
    ............
    ............

u+e1bc:
char57788:
    ............
    ............
    ....@@@@....
    ...@....@...
    ..@......@..
    ..@......@..
    ..@......@..
    ..@......@..
    ...@....@...
    ....@@@@....
    ............
    ............

u+e1bd:
char57789:
    ............
    ............
    ............
    ..@@.@@.....
    ...@........
    ...@........
    ....@....@..
    ..@..@@@@@..
    ...@........
    ............
    ............
    ............

u+e1be:
char57790:
    ............
    ............
    ............
    ............
    .....@@.@@..
    ........@...
    ........@...
    ..@....@....
    ..@@@@@..@..
    ........@...
    ............
    ............

u+e1bf:
char57791:
    ............
    ............
    ..@......@..
    ..@@....@@..
    ..@.@@@@.@..
    ..@@@@@@@@..
    ..@..@@..@..
    ..@@.@@.@@..
    ...@@@@@@...
    .....@@.....
    ............
    ............

u+e1c0:
char57792:
    ............
    ............
    ...@@...@...
    ..@..@@..@..
    ....@@@@.@..
    ...@@..@@...
    ...@@..@@...
    ..@.@@@@....
    ..@..@@..@..
    ...@...@@...
    ............
    ............

u+e1c1:
char57793:
    ............
    ............
    ..@...@@@@..
    ..@@.@@.@...
    ..@.@@@@....
    ..@@@..@@...
    ...@@..@@@..
    ....@@@@.@..
    ...@.@@.@@..
    ..@@@@...@..
    ............
    ............

u+e1c2:
char57794:
    ............
    ............
    ....@@@@....
    ...@@@@@@...
    ..@@@@@@@@..
    ..@@@@@@@@..
    ..@@@@@@@@..
    ..@@@@@@@@..
    ...@@@@@@...
    ....@@@@....
    ............
    ............

u+e1c3:
char57795:
    ............
    ............
    ....@@@@....
    ...@@@..@...
    ..@@@@...@..
    ..@@@@...@..
    ..@@@@...@..
    ..@@@@...@..
    ...@@@..@...
    ....@@@@....
    ............
    ............

u+e1c4:
char57796:
    ............
    ............
    ....@@@@....
    ...@@..@@...
    ..@@@@@@@@..
    ..@@@..@@@..
    ..@@@..@@@..
    ..@@@..@@@..
    ...@@..@@...
    ....@@@@....
    ............
    ............

u+e1c5:
char57797:
    ............
    ............
    ..@@@@@@@@..
    ..@@@..@@@..
    ..@@@@@@@@..
    ..@@@..@@@..
    ..@@@..@@@..
    ..@@@..@@@..
    ..@@@..@@@..
    ..@@@@@@@@..
    ............
    ............

u+e1c6:
char57798:
    ............
    ............
    ...@@@.@@@..
    ...@@@.@@@..
    ...@@@.@@@..
    ...@.....@..
    ...@@@@@@@..
    ...@@@@@@@..
    ...@@@@@@@..
    ....@@@@@...
    ............
    ............

u+e1c7:
char57799:
    ............
    ............
    ..@@........
    ..@@@@......
    ...@@@@.....
    ...@@@@@....
    ....@@@@....
    .....@@.@...
    .......@.@..
    ........@@..
    ............
    ............

u+e1c8:
char57800:
    ............
    ............
    ....@@@@....
    ...@....@...
    ..@......@..
    ..@......@..
    ..@@@@@@@@..
    ....@@@@....
    ....@@@@....
    ....@@@@....
    ............
    ............

u+e1c9:
char57801:
    ............
    ............
    ....@@..@...
    ..@@..@..@..
    ..@@..@..@..
    ..@@@.@..@..
    ..@@@.@..@..
    ..@@..@..@..
    ..@@..@..@..
    ....@@..@...
    ............
    ............

u+e1ca:
char57802:
    ............
    ............
    ...@@@......
    ..@@..@.....
    ..@....@....
    ..@.....@...
    ...@.....@..
    ....@....@..
    .....@..@@..
    ......@@@...
    ............
    ............

u+e1cb:
char57803:
    ............
    ............
    ......@@@...
    .....@...@..
    ....@...@@..
    ...@...@@@..
    ...@@@@@@...
    ...@..@@....
    ..@..@......
    ..@@@.......
    ............
    ............

u+e1cc:
char57804:
    ............
    ............
    ........@...
    ......@..@..
    ....@..@.@..
    ..@..@.@.@..
    ..@..@.@.@..
    ....@..@.@..
    ......@..@..
    ........@...
    ............
    ............

u+e1cd:
char57805:
    ............
    ...@.@.@.@..
    ...@.@.@.@..
    ..@@@@@@@@@.
    ..@.......@.
    ..@@.@.@.@@.
    ..@.......@.
    ..@@.@.@.@@.
    ..@.......@.
    ..@@@@@@@@@.
    ............
    ............

u+e1ce:
code:
    ............
    ...@........
    ...@@.......
    ....@@......
    ....@@......
    .....@@.....
    ....@@@@....
    ...@@.@@....
    ...@@..@@...
    ..@@....@@..
    ............
    ............

u+e1cf:
char57807:
    ............
    ...@@@@@....
    ...@...@....
    ...@...@@@..
    ...@.....@..
    ...@.....@..
    ...@.....@..
    ...@.....@..
    ...@.....@..
    ...@@@@@@@..
    ............
    ............

u+e1d0:
images:
    ............
    ............
    ............
    @@@@@@@@@@@@
    @..........@
    @........@.@
    @.@...@.@@@@
    @@@@.@@@...@
    @@@@@@@@@.@@
    @@@@@@@@@@@@
    ............
    ............

u+e1d1:
media:
    ............
    .@@@@@@@@@@@
    .@.........@
    .@...@.....@
    .@...@@....@
    .@...@@@...@
    .@...@@....@
    .@...@.....@
    .@.........@
    .@@@@@@@@@@@
    ............
    ............

u+e1d2:
char57810:
    ............
    ............
    ............
    .@@@@@@@@@@@
    .@...@.....@
    .@...@@....@
    .@...@@@...@
    .@...@@....@
    .@...@.....@
    .@@@@@@@@@@@
    ............
    ............

u+e1d3:
git:
    ............
    .@@......@@.
    .@@@@@@@@@@.
    .@@@@@@@@@@.
    @@@@@@@@@@@@
    @@@@@@@@@@@@
    @@........@@
    @@.@@..@@.@@
    @@.@@..@@.@@
    .@@......@@.
    ...@@@@@@...
    ............

u+e1d4:
punk_small:
    ............
    .....@@@....
    ....@@@@@...
    ...@@@@..@..
    ..@.......@.
    .@@.@@.@@.@@
    .@@.......@@
    .@@@@@.@@.@@
    ..@.@@.@@.@.
    ....@@.@@...
    .....@@@....
    ............

u+e1d5:
char57813:
    ............
    ..@@@@@@....
    ..@@@@.@@...
    ..@@@@.@@@..
    ..@@@@....@.
    ..@@@@@@@@@.
    ..@@.....@@.
    ..@@@@@@@@@.
    ..@@.....@@.
    ..@@@@@@@@@.
    ..@@@@@@@@@.
    ............

u+e1d6:
folder:
    ............
    .@@@@.......
    .@@@@@@@@@@.
    .@...@@@@@@.
    .@........@.
    .@........@.
    .@........@.
    .@........@.
    .@........@.
    .@@@@@@@@@@.
    ............
    ............

u+e1d7:
monitor:
    ............
    ............
    .@@@@@@@@@@.
    .@........@.
    .@........@.
    .@........@.
    .@........@.
    .@@@@@@@@@@.
    .@@@@@@@@@@.
    ....@@@@....
    ....@@@@....
    ............

u+e1d8:
laptop:
    ............
    ............
    .@@@@@@@@@@.
    .@........@.
    .@........@.
    .@........@.
    .@........@.
    ..@@@@@@@@..
    .@........@.
    @@@@@..@@@@@
    @@@@@@@@@@@@
    ............

u+e1d9:
folder_open:
    ............
    ............
    .@@@@.......
    .@..@@@@@...
    .@.......@..
    .@..@@@@@@@.
    .@.@.......@
    .@@.......@.
    .@.......@@.
    .@@@@@@@@@..
    ............
    ............

u+e1da:
image:
    ............
    @@@@@@@@@@@@
    @.@........@
    @@@@....@..@
    @.@...@@@..@
    @..@.@@@@@.@
    @.@@@@@@@@.@
    @@@@@@@@@@@@
    @..........@
    @@@@@@@@@@@@
    ............
    ............

u+e1db:
tag:
    ............
    ............
    ..@@@@......
    ..@..@@.....
    ..@..@@@....
    ..@@@@@@@...
    ...@@@@@@@..
    ....@@@@@@..
    .....@@@@...
    ......@@....
    ............
    ............

u+e1dc:
char57820:
    ............
    ............
    .@@@@.@@....
    .@..@@.@@...
    .@..@@@.@@..
    .@@@@@@@.@@.
    ..@@@@@@@.@@
    ...@@@@@@.@@
    ....@@@@.@@.
    .....@@.@@..
    ........@...
    ............

u+e1dd:
film_large:
    ............
    @@@@@@@@@@@@
    @.@......@.@
    @@@......@@@
    @.@......@.@
    @@@@@@@@@@@@
    @.@......@.@
    @@@......@@@
    @.@......@.@
    @@@@@@@@@@@@
    ............
    ............

u+e1de:
barcode:
    ............
    @@@@@@@@@@@@
    @.@@.@.@.@.@
    @.@@.@.@.@.@
    @.@@.@.@.@.@
    @.@@.@.@.@.@
    @.@@.@.@.@.@
    @.@@.@.@.@.@
    @.@@.@.@.@.@
    @@@@@@@@@@@@
    ............
    ............

u+e1df:
book:
    ............
    ............
    ....@@@@@@@.
    ....@@@@@@@.
    ...@@....@@.
    ...@@@@@@@@.
    ..@@....@@@.
    ..@@@@@@@@@.
    ..@@@@@@@@..
    ..@......@..
    ...@@@@@@...
    ............

u+e1e0:
char57824:
    ............
    ............
    .@@@@.......
    .@@@@@@@@@@.
    .@@@@@@@@@@.
    .@@@@@@@@@@.
    .@@@@@@@@@@.
    .@@@@@@@@@@.
    .@@@@@@@@@@.
    .@@@@@@@@@@.
    ............
    ............

u+e1e1:
char57825:
    ............
    ............
    .@@@@.......
    .@@@@@@@@...
    .@@@@@@@@@..
    .@@@.....@..
    .@@.@@@@@@@@
    .@.@@@@@@@@.
    ..@@@@@@@@..
    .@@@@@@@@...
    ............
    ............

u+e1e2:
char57826:
    ............
    ...@@@@@@@..
    ...@@@@@@@..
    ...@@@@@@@..
    ...@@@@@@@..
    ...@@@@@@@..
    ...@@@@@@@..
    ...@@@.@@@..
    ...@@...@@..
    ...@.....@..
    ............
    ............

u+e1e3:
char57827:
    ............
    ...@@@@@@@..
    ...@.....@..
    ...@.....@..
    ...@.....@..
    ...@.....@..
    ...@..@..@..
    ...@.@.@.@..
    ...@@...@@..
    ...@.....@..
    ............
    ............

u+e1e4:
drop:
    .....@......
    ....@@@.....
    ...@@@@@....
    ...@@@@@....
    ..@@@@@@@...
    ..@@.@@@@...
    ..@@.@@@@...
    ..@@.@@@@...
    ...@@@@@....
    ....@@@.....
    ............
    ............

u+e1e5:
pen:
    .........@@.
    ........@@@@
    .......@@@@@
    ......@.@@@.
    .....@@@.@..
    ....@@@@@...
    ...@@@@@....
    ..@@@@@.....
    .@.@@@......
    .@@.@.......
    .@@@........
    ............

u+e1e6:
char57830:
    ............
    ....@@@@@...
    ...@@...@@..
    ..@@@@@@@@@.
    ...@.....@..
    ...@.@.@.@..
    ...@.@.@.@..
    ...@.@.@.@..
    ...@.....@..
    ...@@@@@@@..
    ............
    ............

u+e1e7:
camera:
    ............
    ............
    .@@@@@@@@@@.
    .@..@.....@.
    .@@@@@@@@@@.
    .@.@@..@@@@.
    .@@@.@@.@@@.
    .@@@.@@.@@@.
    .@@@@..@@@@.
    .@@@@@@@@@@.
    ............
    ............

u+e1e8:
punk_large:
    ....@@@@....
    ...@@@@@@...
    ..@@@@@..@..
    .@........@.
    @@.@@..@@.@@
    @@........@@
    @@@@@..@@.@@
    @@.@@..@@.@@
    .@.@@..@@.@.
    ...@@..@@...
    ....@@@@....
    ............

u+e1e9:
reddit:
    ......@@@@@.
    ......@.@@@.
    .....@@.....
    .@@@@..@@@@.
    @.@......@.@
    @@........@@
    @..@@..@@..@
    @..@@..@@..@
    @..........@
    .@..@@@@..@.
    ..@@....@@..
    ....@@@@....

u+e1ea:
hackernews:
    ............
    ............
    ...@@@@@@...
    ....@@@@....
    ..@..@@..@..
    ..@@....@@..
    ..@@@..@@@..
    ..@@@..@@@..
    ..@@@..@@@..
    ..@@@..@@@..
    ............
    ............

u+e1eb:
youtube:
    ............
    ............
    ..@@@@@@@@..
    .@@@@@@@@@@.
    .@@@@.@@@@@.
    .@@@@..@@@@.
    .@@@@..@@@@.
    .@@@@.@@@@@.
    .@@@@@@@@@@.
    ..@@@@@@@@..
    ............
    ............

u+e1ec:
char57836:
    ............
    ............
    .@..........
    .@@.........
    ..@@........
    ...@@.......
    ...@@.......
    ..@@........
    .@@.........
    .@....@@@@@@
    ............
    ............

u+e1ed:
char57837:
    ............
    ..@@@@@@....
    ..@....@@...
    ..@....@.@..
    ..@....@@@@.
    ..@.......@.
    ..@.@@@@@.@.
    ..@.......@.
    ..@.@@@@@.@.
    ..@.......@.
    ..@@@@@@@@@.
    ............

u+e1ee:
find:
    ............
    ...@@@......
    ..@...@.....
    .@.....@....
    .@.....@....
    .@.....@....
    ..@...@.....
    ...@@@.@....
    ........@...
    .........@..
    ..........@.
    ............

u+e1ef:
terminal_big:
    ............
    ............
    .@@@@@@@@@@.
    .@@@@@@@@@@.
    .@........@.
    .@.@......@.
    .@..@.....@.
    .@.@..@@@.@.
    .@........@.
    .@@@@@@@@@@.
    ............
    ............

u+e1f0:
char57840:
    ............
    .....@@..@@.
    ....@@@@.@@.
    ...@@..@@@@.
    ..@@....@@@.
    .@@......@@.
    @@........@@
    @@..@@@@..@@
    .@..@..@..@.
    .@..@..@..@.
    .@@@@..@@@@.
    ............

u+e1f1:
char57841:
    ............
    ............
    ............
    .@@@@@@@@@@.
    ............
    .@@@@@@@@@@.
    ............
    .@@@@@@@@@@.
    ............
    .@@@@@@@@@@.
    ............
    ............

u+e1f2:
char57842:
    ............
    ............
    ............
    .@.@@@@@@@@.
    ............
    .@.@@@@@@@@.
    ............
    .@.@@@@@@@@.
    ............
    .@.@@@@@@@@.
    ............
    ............

u+e1f3:
char57843:
    ............
    ............
    ............
    .@@@@@@@@...
    ............
    .@@@@@@@@@..
    ............
    .@@@@@@@@...
    ............
    .@@@@@@@@@@.
    ............
    ............

u+e1f4:
char57844:
    ............
    ............
    ............
    ...@@@@@@@@.
    ............
    ..@@@@@@@@@.
    ............
    ...@@@@@@@@.
    ............
    .@@@@@@@@@@.
    ............
    ............

u+e1f5:
char57845:
    ............
    ............
    ............
    .@@@@@@@..@.
    .@@@@@@@.@@.
    .@@@@@@@@@@.
    .@@@@@@@@@@.
    .@@@@@@@@@@.
    .@@@@@@@.@@.
    .@@@@@@@..@.
    ............
    ............

u+e1f6:
char57846:
    ...@@@@@....
    ...@@@@@....
    ...@@.@@....
    ...@@.@@....
    ...@@@@@....
    ...@@@@@....
    ..@@@@@@@...
    ..@@@@@@@...
    .....@......
    .....@......
    .....@......
    .....@......

u+e1f7:
char57847:
    ..@@@@@@@@@.
    ..@@@@@...@.
    ..@@@@@...@.
    ..@@@@@...@.
    ..@@@@@...@.
    ..@@@@@...@.
    ..@@@@@...@.
    ..@@@@@..@@.
    ...@@@@.@@..
    ....@@@@@...
    .....@@@....
    ......@.....

u+e1f8:
char57848:
    ............
    ............
    ............
    .......@....
    ......@@....
    .....@@@....
    ....@@@@....
    ...@@@@@....
    ..@@@@@@....
    ............
    ............
    ............

u+e1f9:
char57849:
    ............
    ............
    ............
    ..@.........
    ..@@........
    ..@@@.......
    ..@@@@......
    ..@@@@@.....
    ..@@@@@@....
    ............
    ............
    ............

u+e1fa:
char57850:
    ............
    ............
    ............
    ..@@@@@@....
    ..@@@@@.....
    ..@@@@......
    ..@@@.......
    ..@@........
    ..@.........
    ............
    ............
    ............

u+e1fb:
char57851:
    ............
    ............
    ............
    ..@@@@@@....
    ...@@@@@....
    ....@@@@....
    .....@@@....
    ......@@....
    .......@....
    ............
    ............
    ............

u+e1fc:
char57852:
    ............
    ............
    ............
    ....@.@.....
    ....@.@.....
    ...@@.@@....
    ....@.@.....
    ...@@.@@....
    ....@.@.....
    ....@.@.....
    ............
    ............

u+e1fd:
char57853:
    ............
    .....@@@....
    ...@@@@@@@..
    ...@.....@..
    ...@.....@..
    ...@.....@..
    ...@.....@..
    ...@.....@..
    ...@.....@..
    ...@.....@..
    ...@@@@@@@..
    ............

u+e1fe:
char57854:
    ............
    .....@@@....
    ...@@@@@@@..
    ...@.....@..
    ...@.....@..
    ...@.....@..
    ...@.@@@.@..
    ...@.@@@.@..
    ...@.@@@.@..
    ...@.....@..
    ...@@@@@@@..
    ............

u+e1ff:
char57855:
    ............
    .....@@@....
    ...@@@@@@@..
    ...@.....@..
    ...@.@@@.@..
    ...@.@@@.@..
    ...@.@@@.@..
    ...@.@@@.@..
    ...@.@@@.@..
    ...@.....@..
    ...@@@@@@@..
    ............

u+e200:
char57856:
    ............
    .....@@@....
    ...@@@@@@@..
    ...@@.@.@@..
    ...@@.@.@@..
    ...@.....@..
    ...@.....@..
    ...@@...@@..
    ...@@@.@@@..
    ...@@@.@@@..
    ...@@@@@@@..
    ............

u+e201:
char57857:
    ............
    .....@@@....
    ...@@@@@@@..
    ...@@@@.@@..
    ...@@@.@@@..
    ...@@..@@@..
    ...@.....@..
    ...@@@..@@..
    ...@@@.@@@..
    ...@@.@@@@..
    ...@@@@@@@..
    ............

u+e202:
char57858:
    ............
    ............
    .......@....
    ...@..@@....
    ....@.@@....
    ...@.@.@....
    ...@@.@.....
    ...@@@.@....
    .....@@.@...
    ......@@.@..
    .......@....
    ............

u+e203:
char57859:
    ............
    ............
    .......@..@.
    ......@@.@..
    .....@@@....
    ...@@@@@....
    ...@@@@@.@@.
    ...@@@@@....
    .....@@@....
    ......@@.@..
    .......@..@.
    ............

u+e204:
char57860:
    ............
    ............
    .......@....
    ......@@....
    .....@@@....
    ...@@@@@....
    ...@@@@@....
    ...@@@@@....
    .....@@@....
    ......@@....
    .......@....
    ............

u+e205:
char57861:
    ............
    ............
    ............
    ....@@@@@...
    ....@@@@@...
    ....@...@...
    ....@@@@@...
    ....@...@...
    ..@@@.@@@...
    ..@@@.@@@...
    ............
    ............

u+e206:
char57862:
    ............
    ............
    ............
    ............
    ...@..@.....
    ...@@.@@....
    ...@@@@@@...
    ...@@.@@....
    ...@..@.....
    ............
    ............
    ............

u+e207:
char57863:
    ............
    ............
    ............
    ............
    .....@..@...
    ....@@.@@...
    ...@@@@@@...
    ....@@.@@...
    .....@..@...
    ............
    ............
    ............

u+e208:
char57864:
    ............
    ............
    ............
    ............
    ......@.....
    .....@@@....
    ....@@@@@...
    ......@.....
    .....@@@....
    ....@@@@@...
    ............
    ............

u+e209:
char57865:
    ............
    ............
    ............
    ............
    ....@@@@@...
    .....@@@....
    ......@.....
    ....@@@@@...
    .....@@@....
    ......@.....
    ............
    ............

u+e20a:
char57866:
    ............
    ............
    ............
    ............
    ..@..@..@...
    ..@@.@@.@...
    ..@@@@@@@...
    ..@@.@@.@...
    ..@..@..@...
    ............
    ............
    ............

u+e20b:
char57867:
    ............
    ............
    ............
    ............
    ..@..@..@...
    ..@.@@.@@...
    ..@@@@@@@...
    ..@.@@.@@...
    ..@..@..@...
    ............
    ............
    ............

u+e20c:
char57868:
    ............
    ............
    ............
    ............
    ...@..@.@...
    ...@@.@.@...
    ...@@@@.@...
    ...@@.@.@...
    ...@..@.@...
    ............
    ............
    ............

u+e20d:
berry_percent:
    ............
    ............
    ............
    .....@..@...
    ....@.@.@...
    .....@.@....
    ......@.....
    .....@.@....
    ....@.@.@...
    ....@..@....
    ............
    ............

u+e20e:
char57870:
    ............
    ............
    ............
    ............
    ....@@@.....
    ...@@@@@@...
    .@@@@@@.....
    .@@@@@@.....
    ...@@@@@@...
    ....@@@.....
    ............
    ............

u+e20f:
char57871:
    ............
    ............
    ............
    ..........@@
    ....@@@...@@
    ...@@@@@@.@@
    .@@@@@@...@@
    .@@@@@@...@@
    ...@@@@@@...
    ....@@@...@@
    ..........@@
    ............

u+e210:
char57872:
    ............
    ...@@@......
    .@@@@@@@....
    .@.....@....
    .@.....@....
    .@.....@....
    .@.....@....
    .@.....@....
    .@.....@....
    .@.....@....
    .@.....@....
    .@@@@@@@....

u+e211:
char57873:
    ............
    ...@@@......
    .@@@@@@@....
    .@.....@..@@
    .@.....@..@@
    .@.....@..@@
    .@.....@..@@
    .@.....@..@@
    .@.....@....
    .@.....@..@@
    .@.....@..@@
    .@@@@@@@....

u+e212:
char57874:
    ............
    ...@@@......
    .@@@@@@@....
    .@.....@..@@
    .@.....@..@@
    .@.....@..@@
    .@.....@..@@
    .@.....@..@@
    .@.@...@....
    .@.@@..@..@@
    .@.....@..@@
    .@@@@@@@....

u+e213:
char57875:
    ............
    ...@@@......
    .@@@@@@@....
    .@.....@....
    .@.....@....
    .@.@...@....
    .@.@@..@....
    .@..@@.@....
    .@.@.@.@....
    .@.@@..@....
    .@.....@....
    .@@@@@@@....

u+e214:
char57876:
    ............
    ...@@@......
    .@@@@@@@....
    .@.....@....
    .@..@@.@....
    .@.@.@.@....
    .@.@@..@....
    .@..@@.@....
    .@.@.@.@....
    .@.@@..@....
    .@.....@....
    .@@@@@@@....

u+e215:
char57877:
    ............
    ............
    ......@.....
    .....@......
    ....@@......
    ...@@.......
    ...@@@@@....
    ..@@@@@.....
    .....@@.....
    ....@@......
    ....@.......
    ...@........

u+e216:
char57878:
    ............
    ............
    .....@......
    ....@.......
    ...@........
    ..@@........
    .@@@@@......
    ...@@.......
    ...@........
    ..@.........
    .@..........
    ............

u+e217:
char57879:
    ............
    ............
    ............
    ............
    ............
    ............
    ......@@.@@.
    .......@@@..
    ...@@...@...
    ...@@..@@@..
    ......@@.@@.
    ............

u+e218:
char57880:
    ............
    ............
    ............
    ............
    ............
    ............
    .....@@@@...
    ....@....@..
    ......@@....
    ......@@....
    ............
    ............

u+e219:
char57881:
    ............
    ............
    ............
    ............
    ....@@@@@@..
    ...@......@.
    .....@@@@...
    ....@....@..
    ......@@....
    ......@@....
    ............
    ............

u+e21a:
char57882:
    ............
    ............
    ...@@@@@@@@.
    ..@........@
    ....@@@@@@..
    ...@......@.
    .....@@@@...
    ....@....@..
    ......@@....
    ......@@....
    ............
    ............

u+e21b:
char57883:
    ............
    ............
    ............
    .@..........
    .@..........
    ............
    .@....@@.@@.
    .@.....@@@..
    ........@...
    .@.....@@@..
    .@....@@.@@.
    ............

u+e21c:
char57884:
    ............
    ............
    ............
    .@..........
    .@..........
    ............
    .@..........
    .@..........
    ............
    .@@@........
    .@@@........
    ............

u+e21d:
char57885:
    ............
    ............
    ............
    .@..........
    .@..........
    ............
    .@@@@@@.....
    .@@@@@@.....
    ............
    .@@@........
    .@@@........
    ............

u+e21e:
char57886:
    ............
    ............
    ............
    .@@@@@@@@@..
    .@@@@@@@@@..
    ............
    .@@@@@@.....
    .@@@@@@.....
    ............
    .@@@........
    .@@@........
    ............

u+e21f:
char57887:
    ............
    ............
    ............
    ............
    ............
    ............
    ............
    ............
    ............
    ............
    ..@@.@@.@@..
    ............

u+e220:
char57888:
    ............
    ............
    ............
    ............
    ............
    ............
    ............
    ............
    ..@@........
    ..@@........
    ..@@.@@.@@..
    ............

u+e221:
char57889:
    ............
    ............
    ............
    ............
    ............
    .....@@.....
    .....@@.....
    .....@@.....
    ..@@.@@.....
    ..@@.@@.....
    ..@@.@@.@@..
    ............

u+e222:
char57890:
    ............
    ............
    ........@@..
    ........@@..
    ........@@..
    .....@@.@@..
    .....@@.@@..
    .....@@.@@..
    ..@@.@@.@@..
    ..@@.@@.@@..
    ..@@.@@.@@..
    ............

u+e223:
char57891:
    ............
    ............
    ...@@@@@@@..
    ..@.......@.
    ..@..@....@.
    ..@..@....@.
    ..@.@.@.@.@.
    ..@....@..@.
    ..@....@..@.
    ..@.......@.
    ...@@@@@@@..
    ............

u+e224:
char57892:
    ............
    ............
    ...@@@@@@@..
    ..@@@.@@@@@.
    ..@@@.@@@@@.
    ..@@@.@@@@@.
    ..@..@.@..@.
    ..@@@@@.@@@.
    ..@@@@@.@@@.
    ..@@@@@.@@@.
    ...@@@@@@@..
    ............

u+e225:
char57893:
    ............
    ............
    ...@.....@..
    ..@@@@@@@@@.
    ..@@@@@@@@@.
    ..@.......@.
    ..@.@.@.@.@.
    ..@.......@.
    ..@.@.@.@.@.
    ..@.......@.
    ..@@@@@@@@@.
    ............

u+e226:
char57894:
    ............
    ............
    ...@.....@..
    ..@@@@@@@@@.
    ..@@@@@@@@@.
    ..@.......@.
    ..@.......@.
    ..@.......@.
    ..@.......@.
    ..@.......@.
    ..@@@@@@@@@.
    ............

u+e227:
char57895:
    ............
    ............
    .@.....@....
    @@@@@@@@@.@@
    @@@@@@@@@.@@
    @.......@.@@
    @.......@.@@
    @.......@.@@
    @.......@...
    @.......@.@@
    @@@@@@@@@.@@
    ............

u+e228:
char57896:
    ............
    ............
    ............
    ..@@@@@@@@@.
    ..@@.....@@.
    ..@.@...@.@.
    ..@..@.@..@.
    ..@.@.@.@.@.
    ..@@.....@@.
    ..@@@@@@@@@.
    ............
    ............

u+e229:
char57897:
    ............
    ............
    ............
    ..@@@@@@@@@.
    ..@.@@@@@.@.
    ..@@.@@@.@@.
    ..@@@.@.@@@.
    ..@@.@.@.@@.
    ..@.@@@@@.@.
    ..@@@@@@@@@.
    ............
    ............

u+e22a:
art:
    ............
    ............
    .........@..
    ........@@@.
    .......@@@..
    ......@@@...
    .....@@@....
    ....@@@.....
    ...@@@......
    ...@@.......
    ..@.........
    ............

u+e22b:
w_cloud:
    ............
    ............
    ............
    .....@@@....
    ....@@@@@...
    ...@@@@@@@..
    ...@@@@@@@..
    ....@@.@@...
    ............
    ............
    ............
    ............

u+e22c:
w_lightning:
    ............
    ............
    ............
    .....@@@....
    ....@@@@@...
    ...@@@@@@@..
    ...@@@@@@@..
    ....@@.@@...
    ......@.....
    .....@@.....
    .....@......
    ............

u+e22d:
w_rain:
    ............
    ............
    ............
    .....@@@....
    ....@@@@@...
    ...@@@@@@@..
    ...@@@@@@@..
    ....@@.@@...
    ............
    ....@.@.@...
    ...@.@.@....
    ............

u+e22e:
char57902:
    ............
    ............
    ............
    .....@@@....
    ....@@@@@...
    ...@@@@@@@..
    ...@@@@@@@..
    ....@@.@@...
    ............
    ...@..@.....
    .....@.@....
    ......@..@..

u+e22f:
w_hail:
    ............
    ............
    ............
    .....@@@....
    ....@@@@@...
    ...@@@@@@@..
    ...@@@@@@@..
    ....@@.@@...
    ......@.....
    ....@...@...
    ......@.....
    ....@...@...

u+e230:
w_morerainidunno:
    ............
    ............
    ............
    .....@@@....
    ....@@@@@...
    ...@@@@@@@..
    ...@@@@@@@..
    ....@@.@@...
    ............
    ....@...@...
    ......@.....
    ............

u+e231:
char57905:
    ............
    .......@.@..
    .....@.@@...
    ....@@@..@@.
    ...@@@...@..
    ...@@@@..@@.
    ...@@@@@@...
    ....@.@@.@..
    ............
    ............
    ............
    ............

u+e232:
w_partlymoon:
    .......@....
    ......@.....
    ......@.....
    ....@.@@..@.
    ...@@@.@@@..
    ...@@@@.....
    ...@@@@@@...
    ....@.@@....
    ............
    ............
    ............
    ............

u+e233:
w_moon:
    ............
    ............
    ............
    ....@.......
    ...@........
    ...@........
    ...@@..@....
    ....@@@.....
    ............
    ............
    ............
    ............

u+e234:
w_sun:
    ............
    ............
    ...@..@..@..
    ....@@@@@...
    ....@...@...
    ....@...@...
    ....@...@...
    ....@@@@@...
    ...@..@..@..
    ............
    ............
    ............

u+e235:
w_wind:
    ............
    ............
    ......@@....
    ...@@@@@....
    .........@@.
    ...@@@@@@@@.
    ............
    ...@@@@@@...
    .......@@...
    ............
    ............
    ............

u+e236:
char57910:
    ............
    ............
    ............
    .@@@@@@@@@..
    .@.......@..
    .@.......@@.
    .@.......@@.
    .@.......@@.
    .@.......@..
    .@@@@@@@@@..
    ............
    ............

u+e237:
char57911:
    ............
    ............
    ............
    .@@@@@@@@@..
    .@.......@..
    .@.@@@...@@.
    .@.@@@...@@.
    .@.@@@...@@.
    .@.......@..
    .@@@@@@@@@..
    ............
    ............

u+e238:
char57912:
    ............
    ............
    ............
    .@@@@@@@@@..
    .@.......@..
    .@.@@@@@.@@.
    .@.@@@@@.@@.
    .@.@@@@@.@@.
    .@.......@..
    .@@@@@@@@@..
    ............
    ............

u+e239:
char57913:
    ............
    ............
    ............
    .@@@@@@@@@..
    .@@@@..@@@..
    .@@@.....@@.
    .@.....@@@@.
    .@@@.....@@.
    .@@@@..@@@..
    .@@@@@@@@@..
    ............
    ............

u+e23a:
char57914:
    ............
    ............
    ............
    .@@@@@@@@@..
    .@@@@.@@@@..
    .@@@..@@.@@.
    .@@.....@@@.
    .@.@@..@@@@.
    .@@@@.@@@@..
    .@@@@@@@@@..
    ............
    ............

u+e23b:
char57915:
    ............
    ............
    ............
    ..@@@@@@@@@.
    ..@.......@.
    .@@.......@.
    .@@.......@.
    .@@.......@.
    ..@.......@.
    ..@@@@@@@@@.
    ............
    ............

u+e23c:
char57916:
    ............
    ............
    ............
    ..@@@@@@@@@.
    ..@.......@.
    .@@...@@@.@.
    .@@...@@@.@.
    .@@...@@@.@.
    ..@.......@.
    ..@@@@@@@@@.
    ............
    ............

u+e23d:
char57917:
    ............
    ............
    ............
    ..@@@@@@@@@.
    ..@.......@.
    .@@.@@@@@.@.
    .@@.@@@@@.@.
    .@@.@@@@@.@.
    ..@.......@.
    ..@@@@@@@@@.
    ............
    ............

u+e23e:
char57918:
    ............
    ............
    ............
    ..@@@@@@@@@.
    ..@@@..@@@@.
    .@@.....@@@.
    .@@@@.....@.
    .@@.....@@@.
    ..@@@..@@@@.
    ..@@@@@@@@@.
    ............
    ............

u+e23f:
char57919:
    ............
    ............
    ............
    ..@@@@@@@@@.
    ..@@@@.@@@@.
    .@@.@@..@@@.
    .@@@.....@@.
    .@@@@..@@.@.
    ..@@@@.@@@@.
    ..@@@@@@@@@.
    ............
    ............

u+e240:
char57920:
    ............
    ............
    ............
    ............
    ...@........
    ...@........
    @@@@.@.@@@@@
    @..@.@.@.@.@
    @@@@@@@@.@.@
    ............
    ............
    ............

u+e241:
char57921:
    ............
    ............
    ...@........
    ...@........
    ...@........
    @@@@.@.@@@@@
    @..@.@.@.@.@
    @..@.@.@.@.@
    @@@@@@@@.@.@
    ............
    ............
    ............

u+e242:
char57922:
    ............
    ............
    ............
    @@@@@@@@@@@.
    @.........@@
    @..........@
    @..........@
    @..........@
    @.........@@
    @@@@@@@@@@@.
    ............
    ............

u+e243:
char57923:
    ............
    ............
    ............
    @@@@@@@@@@@.
    @.........@@
    @@.........@
    @@.........@
    @@.........@
    @.........@@
    @@@@@@@@@@@.
    ............
    ............

u+e244:
char57924:
    ............
    ............
    ............
    @@@@@@@@@@@.
    @.........@@
    @@@........@
    @@@........@
    @@@........@
    @.........@@
    @@@@@@@@@@@.
    ............
    ............

u+e245:
char57925:
    ............
    ............
    ............
    @@@@@@@@@@@.
    @.........@@
    @@@@.......@
    @@@@.......@
    @@@@.......@
    @.........@@
    @@@@@@@@@@@.
    ............
    ............

u+e246:
char57926:
    ............
    ............
    ............
    @@@@@@@@@@@.
    @.........@@
    @@@@@......@
    @@@@@......@
    @@@@@......@
    @.........@@
    @@@@@@@@@@@.
    ............
    ............

u+e247:
char57927:
    ............
    ............
    ............
    @@@@@@@@@@@.
    @.........@@
    @@@@@@.....@
    @@@@@@.....@
    @@@@@@.....@
    @.........@@
    @@@@@@@@@@@.
    ............
    ............

u+e248:
char57928:
    ............
    ............
    ............
    @@@@@@@@@@@.
    @.........@@
    @@@@@@@....@
    @@@@@@@....@
    @@@@@@@....@
    @.........@@
    @@@@@@@@@@@.
    ............
    ............

u+e249:
char57929:
    ............
    ............
    ............
    @@@@@@@@@@@.
    @.........@@
    @@@@@@@@...@
    @@@@@@@@...@
    @@@@@@@@...@
    @.........@@
    @@@@@@@@@@@.
    ............
    ............

u+e24a:
char57930:
    ............
    ............
    ............
    @@@@@@@@@@@.
    @.........@@
    @@@@@@@@@..@
    @@@@@@@@@..@
    @@@@@@@@@..@
    @.........@@
    @@@@@@@@@@@.
    ............
    ............

u+e24b:
char57931:
    ............
    ............
    ............
    @@@@@@@@@@@.
    @.........@@
    @@@@@@@@@@.@
    @@@@@@@@@@.@
    @@@@@@@@@@.@
    @.........@@
    @@@@@@@@@@@.
    ............
    ............

u+e24c:
char57932:
    ............
    ............
    ............
    @@@@@@@@@@@.
    @@........@@
    @@.........@
    @@.........@
    @@.........@
    @@........@@
    @@@@@@@@@@@.
    ............
    ............

u+e24d:
char57933:
    ............
    ............
    ............
    @@@@@@@@@@@.
    @@@.......@@
    @@@........@
    @@@........@
    @@@........@
    @@@.......@@
    @@@@@@@@@@@.
    ............
    ............

u+e24e:
char57934:
    ............
    ............
    ............
    @@@@@@@@@@@.
    @@@@......@@
    @@@@.......@
    @@@@.......@
    @@@@.......@
    @@@@......@@
    @@@@@@@@@@@.
    ............
    ............

u+e24f:
char57935:
    ............
    ............
    ............
    @@@@@@@@@@@.
    @@@@@.....@@
    @@@@@......@
    @@@@@......@
    @@@@@......@
    @@@@@.....@@
    @@@@@@@@@@@.
    ............
    ............

u+e250:
char57936:
    ............
    ............
    ............
    @@@@@@@@@@@.
    @@@@@@....@@
    @@@@@@.....@
    @@@@@@.....@
    @@@@@@.....@
    @@@@@@....@@
    @@@@@@@@@@@.
    ............
    ............

u+e251:
char57937:
    ............
    ............
    ............
    @@@@@@@@@@@.
    @@@@@@@...@@
    @@@@@@@....@
    @@@@@@@....@
    @@@@@@@....@
    @@@@@@@...@@
    @@@@@@@@@@@.
    ............
    ............

u+e252:
char57938:
    ............
    ............
    ............
    @@@@@@@@@@@.
    @@@@@@@@..@@
    @@@@@@@@...@
    @@@@@@@@...@
    @@@@@@@@...@
    @@@@@@@@..@@
    @@@@@@@@@@@.
    ............
    ............

u+e253:
char57939:
    ............
    ............
    ............
    @@@@@@@@@@@.
    @@@@@@@@@.@@
    @@@@@@@@@..@
    @@@@@@@@@..@
    @@@@@@@@@..@
    @@@@@@@@@.@@
    @@@@@@@@@@@.
    ............
    ............

u+e254:
char57940:
    ............
    ............
    ............
    @@@@@@@@@@@.
    @@@@@@@@@@@@
    @@@@@@@@@@.@
    @@@@@@@@@@.@
    @@@@@@@@@@.@
    @@@@@@@@@@@@
    @@@@@@@@@@@.
    ............
    ............

u+e255:
layout_full:
    ............
    ............
    ............
    .@@@@@@@@@@@
    .@.........@
    .@.........@
    .@.........@
    .@.........@
    .@.........@
    .@@@@@@@@@@@
    ............
    ............

u+e256:
layout_mirror:
    ............
    ............
    ............
    .@@@@@@@@@@@
    .@.........@
    .@.........@
    .@@@@@@@@@@@
    .@....@....@
    .@....@....@
    .@@@@@@@@@@@
    ............
    ............

u+e257:
layout_tall:
    ............
    ............
    ............
    .@@@@@@@@@@@
    .@....@....@
    .@....@....@
    .@....@@@@@@
    .@....@....@
    .@....@....@
    .@@@@@@@@@@@
    ............
    ............

u+e258:
wifi_1:
    ............
    ............
    ............
    ............
    ............
    ............
    ............
    ............
    ............
    .@..........
    ............
    ............

u+e259:
wifi_2:
    ............
    ............
    ............
    ............
    ............
    ............
    ............
    ............
    ...@........
    .@.@........
    ............
    ............

u+e25a:
wifi_3:
    ............
    ............
    ............
    ............
    ............
    ............
    ............
    .....@......
    ...@.@......
    .@.@.@......
    ............
    ............

u+e25b:
wifi_4:
    ............
    ............
    ............
    ............
    ............
    ............
    .......@....
    .....@.@....
    ...@.@.@....
    .@.@.@.@....
    ............
    ............

u+e25c:
wifi_5:
    ............
    ............
    ............
    ............
    ............
    .........@..
    .......@.@..
    .....@.@.@..
    ...@.@.@.@..
    .@.@.@.@.@..
    ............
    ............

u+e25d:
wifi_alt_1:
    ............
    ............
    ............
    ............
    ............
    ............
    ............
    ............
    ............
    .@.@.@.@.@..
    ............
    ............

u+e25e:
wifi_alt_2:
    ............
    ............
    ............
    ............
    ............
    ............
    ............
    ............
    ...@........
    .@.@.@.@.@..
    ............
    ............

u+e25f:
wifi_alt_3:
    ............
    ............
    ............
    ............
    ............
    ............
    ............
    .....@......
    ...@.@......
    .@.@.@.@.@..
    ............
    ............

u+e260:
wifi_alt_4:
    ............
    ............
    ............
    ............
    ............
    ............
    .......@....
    .....@.@....
    ...@.@.@....
    .@.@.@.@.@..
    ............
    ............

u+e261:
wifi_alt_5:
    ............
    ............
    ............
    ............
    ............
    .........@..
    .......@.@..
    .....@.@.@..
    ...@.@.@.@..
    .@.@.@.@.@..
    ............
    ............

u+e262:
calendar_large:
    ............
    ..@.@.@.@...
    @@@@@@@@@@@@
    @.@.@.@.@..@
    @..........@
    @.@.@.@.@.@@
    @..........@
    @.@.@.@.@.@@
    @..........@
    @@@@@@@@@@@@
    ............
    ............

u+e263:
film_small:
    ............
    ............
    ............
    .@@@@@@@@@@.
    .@.@....@.@.
    .@@@....@@@.
    .@.@@@@@@.@.
    .@@@....@@@.
    .@.@....@.@.
    .@@@@@@@@@@.
    ............
    ............

u+e264:
folder_small:
    ............
    ............
    ............
    ............
    ..@@@.......
    ..@@@@@@@@..
    ..@@@@@@@@..
    ..@@@@@@@@..
    ..@@@@@@@@..
    ..@@@@@@@@..
    ............
    ............

u+e265:
view_calendar_month:
    ............
    ............
    ..@@@@@@@@@.
    ..@@@@@@@@@.
    ..@.@.@.@.@.
    ..@@@@@@@@@.
    ..@.@.@.@.@.
    ..@@@@@@@@@.
    ..@.@.@.@.@.
    ..@@@@@@@@@.
    ............
    ............

u+e266:
calendar_small:
    ............
    ..@.@.@.@...
    .@@@@@@@@@@.
    .@@.@.@.@.@.
    .@........@.
    .@.@.@.@.@@.
    .@........@.
    .@.@.@.@.@@.
    .@........@.
    .@@@@@@@@@@.
    ............
    ............

u+e267:
char57959:
    ............
    ............
    .@@@@@@@@@@.
    .@@@@@@@@@@.
    .@........@.
    .@.@.@.@.@@.
    .@........@.
    .@.@.@.@.@@.
    .@........@.
    .@@@@@@@@@@.
    ............
    ............

u+e268:
editor_large:
    ............
    ............
    ..@@@@@@@@..
    .@@@@@@@@@@.
    .@........@.
    .@.@@@@@@.@.
    .@........@.
    .@.@@@@@@.@.
    .@........@.
    .@@@@@@@@@@.
    ............
    ............

u+e269:
char57961:
    ............
    ............
    .@@@@@@@@@@.
    .@@@@@@@@@@.
    .@........@.
    .@.@.@@@@.@.
    .@........@.
    .@.@.@@@@.@.
    .@........@.
    .@@@@@@@@@@.
    ............
    ............

u+e26a:
char57962:
    ............
    ............
    ...@.....@..
    ..@.@@@@@.@.
    ..@@@@@@@@@.
    ..@.@.@.@.@.
    ..@@@@@@@@@.
    ..@.@.@.@.@.
    ..@@@@@@@@@.
    ..@.@.@.@.@.
    ..@@@@@@@@@.
    ............

u+e26b:
layout_deck:
    ............
    ............
    ..@@@@.@@@..
    ..@@@@.@@@..
    ..@@@@.@@@..
    ..@@@@.@@@..
    ..@@@@.@@@..
    ..@@@@.@@@..
    ..@@@@.@@@..
    ..@@@@.@@@..
    ............
    ............

u+e26c:
char57964:
    ............
    ..@@@@@@@@@.
    ..@@@@@@@@@.
    ..@...@...@.
    ..@...@...@.
    ..@...@...@.
    ..@...@...@.
    ..@...@...@.
    ..@...@...@.
    ..@@@@@@@@@.
    ............
    ............

u+e26d:
web_invert:
    ............
    ............
    ....@@@@....
    ...@@..@@...
    ..@@@.@@@@..
    ..@.@.@@@@..
    ..@.@..@.@..
    ..@@@..@.@..
    ...@@@..@...
    ....@@@@....
    ............
    ............

u+e26e:
char57966:
    ............
    ............
    .....@@@....
    ....@@@.@...
    ....@..@@...
    ....@...@...
    .....@.@....
    .....@@@....
    .....@@@....
    ......@.....
    ............
    ............

u+e26f:
keyboard_layout:
    ............
    ............
    @@@@@@@@@@@@
    @.@.@.@....@
    @........@.@
    @@@.@.@.@@.@
    @..........@
    @.@.@@@@.@.@
    @..........@
    @@@@@@@@@@@@
    ............
    ............

u+e270:
Quarter Note:
    ............
    ............
    ....@.......
    ....@.......
    ....@.......
    ....@.......
    ....@.......
    ..@@@.......
    ..@@@.......
    ............
    ............
    ............

u+e271:
Eighth Note:
    ............
    ............
    ....@@......
    ....@.@.....
    ....@.@.....
    ....@.......
    ....@.......
    ..@@@.......
    ..@@@.......
    ............
    ............
    ............

u+e272:
Beamed Eighth Notes:
    ............
    ............
    ...@@@@.....
    ...@..@.....
    ...@..@.....
    ...@..@.....
    ...@..@.....
    ..@@.@@.....
    ..@@.@@.....
    ............
    ............
    ............

u+e273:
Beamed Sixteenth Notes:
    ............
    ............
    ...@@@@.....
    ...@@@@.....
    ...@..@.....
    ...@@@@.....
    ...@..@.....
    ..@@.@@.....
    ..@@.@@.....
    ............
    ............
    ............

u+e274:
Music Flat Sign:
    ............
    ............
    ..@.........
    ..@.........
    ..@.........
    ..@.........
    ..@@@.......
    ..@.@.......
    ..@@........
    ............
    ............
    ............

u+e275:
Music Natural Sign:
    ............
    ............
    ..@.........
    ..@..@......
    ..@.@@......
    ..@@.@......
    ..@.@@......
    ..@@.@......
    ..@..@......
    .....@......
    ............
    ............

u+e276:
Music Sharp Sign:
    ............
    ............
    .....@......
    ...@.@@.....
    ...@@@......
    ..@@.@......
    ...@.@@.....
    ...@@@......
    ..@@.@......
    ...@........
    ............
    ............

